<svg xmlns="http://www.w3.org/2000/svg" width="44.001" height="44" viewBox="0 0 44.001 44">
  <g id="checklist" transform="translate(0 -0.007)">
    <g id="Group_168" data-name="Group 168" transform="translate(8.258 0.007)">
      <path id="Path_404" data-name="Path 404" d="M218.147,43a2.02,2.02,0,0,0,1.472-.661,2.067,2.067,0,0,0,.52-1.355V2.037a2.032,2.032,0,0,0-2.033-2.03h-25.4a4.575,4.575,0,0,1,1.124,1.788h1.5a2.037,2.037,0,0,1,2.029,1.879h5a3.27,3.27,0,0,1,3.269,3.264V43.01L218.147,43Z" transform="translate(-184.397 -0.007)" />
      <path id="Path_405" data-name="Path 405" d="M102.913,19.185a1.779,1.779,0,0,0-3.558,0,1.413,1.413,0,0,1-1.412,1.386h-1.88c0,.316,0,1.242,0,1.547h10.141c0-.415,0-1.147,0-1.547h-1.88A1.413,1.413,0,0,1,102.913,19.185Z" transform="translate(-96.064 -15.954)" />
    </g>
    <path id="Path_406" data-name="Path 406" d="M26.215,75.559H21.225v.3a2.2,2.2,0,0,1-2.2,2.2H7.635a2.2,2.2,0,0,1-2.2-2.2v-.3H.444A.44.44,0,0,0,0,75.995v36.634a.44.44,0,0,0,.444.436H26.215a.44.44,0,0,0,.444-.436V75.995A.44.44,0,0,0,26.215,75.559ZM3.107,83.827a1.422,1.422,0,0,1,2.009-.1l.7.633,2.61-2.981a1.422,1.422,0,1,1,2.14,1.874L7,87.321a1.464,1.464,0,0,1-2.024.118l-1.772-1.6a1.423,1.423,0,0,1-.1-2.009Zm19.374,26.039H4.045a1.422,1.422,0,0,1,0-2.845H22.481a1.422,1.422,0,0,1,0,2.845ZM3.107,100.132a1.422,1.422,0,0,1,2.009-.1l.7.633,2.61-2.981a1.422,1.422,0,1,1,2.14,1.874L7,103.627a1.464,1.464,0,0,1-2.024.118l-1.772-1.6a1.423,1.423,0,0,1-.1-2.009Zm19.374,3.919h-8a1.422,1.422,0,1,1,0-2.845h8a1.422,1.422,0,1,1,0,2.845Zm0-10.4H4.045a1.422,1.422,0,0,1,0-2.845H22.481a1.422,1.422,0,0,1,0,2.845Zm0-5.9h-8a1.422,1.422,0,0,1,0-2.845h8a1.422,1.422,0,1,1,0,2.845Z" transform="translate(0 -69.057)" />
  </g>
</svg>
