<svg xmlns="http://www.w3.org/2000/svg" width="42.998" height="42.999" viewBox="0 0 42.998 42.999">
  <g id="document_2_" data-name="document (2)" transform="translate(-0.008 0)">
    <path id="Path_71" data-name="Path 71" d="M35.039,0H1.688A1.679,1.679,0,0,0,.008,1.68V40.008a2.992,2.992,0,0,0,2.431,2.938,2.917,2.917,0,0,0,.957.024,3.062,3.062,0,0,0,2.592-3.035V35.759a1.26,1.26,0,0,1,1.26-1.26H36.6a1.679,1.679,0,0,0,1.68-1.68V3.246A3.245,3.245,0,0,0,35.039,0ZM30.7,28.378H7.592a1.26,1.26,0,1,1,0-2.519H30.7a1.26,1.26,0,1,1,0,2.519Zm0-6.61H7.592a1.26,1.26,0,1,1,0-2.519H30.7a1.26,1.26,0,1,1,0,2.519Zm0-6.611H7.592a1.26,1.26,0,1,1,0-2.519H30.7a1.26,1.26,0,1,1,0,2.519Zm0-6.61H7.592a1.26,1.26,0,1,1,0-2.519H30.7a1.26,1.26,0,1,1,0,2.519Z" />
    <path id="Path_72" data-name="Path 72" d="M126.08,441.911v1.877a2.99,2.99,0,0,1-2.99,2.99H90.7a5.481,5.481,0,0,0,.883-2.99v-1.877a1.112,1.112,0,0,1,1.112-1.112h32.274A1.112,1.112,0,0,1,126.08,441.911Z" transform="translate(-83.074 -403.781)" />
  </g>
</svg>
