<svg xmlns="http://www.w3.org/2000/svg" width="46.035" height="45.005" viewBox="0 0 46.035 45.005">
  <g id="logout_1_" data-name="logout (1)" transform="translate(0 -1.374)">
    <path id="Path_4121" data-name="Path 4121" d="M32.246,11.385V3.624A2.256,2.256,0,0,0,30,1.374H2.25A2.256,2.256,0,0,0,0,3.624v31.8a2.29,2.29,0,0,0,1.2,1.987l17.1,8.849a1.134,1.134,0,0,0,1.65-1.012V36.62H30a2.256,2.256,0,0,0,2.25-2.25v-12.3h-4.5V31a1.1,1.1,0,0,1-1.125,1.125H19.985V13.035a2.29,2.29,0,0,0-1.2-1.987L8.7,5.874H26.622A1.1,1.1,0,0,1,27.747,7v4.424h4.5Z" transform="translate(0 0)" />
    <path id="Path_4122" data-name="Path 4122" d="M76.323,17.061l7.312,7.312a2.244,2.244,0,0,1,0,3.262l-7.312,7.312a2.288,2.288,0,0,1-3.3.038,2.391,2.391,0,0,1,.075-3.3l3.3-3.262H63.612a2.218,2.218,0,0,1-1.687-.75,2.546,2.546,0,0,1,.562-3.862,2.4,2.4,0,0,1,1.125-.3H76.4s-3.262-3.262-3.3-3.262a2.269,2.269,0,1,1,3.224-3.187Z" transform="translate(-38.302 -9.351)" />
  </g>
</svg>
