<svg xmlns="http://www.w3.org/2000/svg" width="46.119" height="51.817" viewBox="0 0 46.119 51.817">
  <g id="XMLID_2_" transform="translate(-25.274)">
    <g id="Group_634" data-name="Group 634" transform="translate(25.274)">
      <g id="Group_633" data-name="Group 633">
        <path id="Path_4119" data-name="Path 4119" d="M62.959,282.208a11.269,11.269,0,0,1-9.121,4.654H48.582a4.2,4.2,0,0,1-3.947-2.766,13.334,13.334,0,0,1-2.123-.839,14.3,14.3,0,0,1-3.964-2.934,16.927,16.927,0,0,0-13.274,16.526v1.058a2.633,2.633,0,0,0,2.633,2.633H68.76a2.633,2.633,0,0,0,2.633-2.633v-1.058A16.914,16.914,0,0,0,62.959,282.208Z" transform="translate(-25.274 -248.723)" />
        <path id="Path_4120" data-name="Path 4120" d="M94.606,26.173a3,3,0,0,0,2.627-1.553l.041.109.012.033a11.7,11.7,0,0,0,6.6,6.947,4.194,4.194,0,0,1,3.554-1.965h5.255a2.942,2.942,0,0,0,1.44-.387,5.939,5.939,0,0,0,1.7-1.961,15.152,15.152,0,0,0,1.314-2.778,3.013,3.013,0,0,0,.829.955v1.289a5.287,5.287,0,0,1-5.281,5.281h-5.255a1.8,1.8,0,0,0,0,3.6h5.255a8.889,8.889,0,0,0,8.878-8.878V25.573a2.994,2.994,0,0,0,1.2-2.4v-7.5a2.993,2.993,0,0,0-1.245-2.431,14.382,14.382,0,0,0-28.674,0,2.993,2.993,0,0,0-1.245,2.431v7.5A3,3,0,0,0,94.606,26.173ZM107.19,3.6a10.8,10.8,0,0,1,10.732,9.715,3.009,3.009,0,0,0-.843,1.041c-1.7-4.429-5.487-7.512-9.889-7.512-4.5,0-8.226,3.189-9.882,7.494l-.007.018a3.009,3.009,0,0,0-.843-1.041A10.8,10.8,0,0,1,107.19,3.6Z" transform="translate(-84.13)" />
      </g>
    </g>
  </g>
</svg>
