<svg xmlns="http://www.w3.org/2000/svg" width="39.035" height="43.609" viewBox="0 0 39.035 43.609">
  <g id="user_4_" data-name="user (4)" transform="translate(-24.165)">
    <g id="Group_5" data-name="Group 5" transform="translate(32.363)">
      <g id="Group_4" data-name="Group 4" transform="translate(0)">
        <path id="Path_73" data-name="Path 73" d="M122.114,0a11.323,11.323,0,1,0,11.323,11.323A11.353,11.353,0,0,0,122.114,0Z" transform="translate(-110.791)" />
      </g>
    </g>
    <g id="Group_7" data-name="Group 7" transform="translate(24.165 23.455)">
      <g id="Group_6" data-name="Group 6" transform="translate(0)">
        <path id="Path_74" data-name="Path 74" d="M63.117,256.079A10.555,10.555,0,0,0,61.98,254a14.074,14.074,0,0,0-9.74-6.131,2.084,2.084,0,0,0-1.434.346,12.069,12.069,0,0,1-14.24,0,1.855,1.855,0,0,0-1.434-.346A13.972,13.972,0,0,0,25.391,254a12.171,12.171,0,0,0-1.137,2.077,1.051,1.051,0,0,0,.049.939A19.731,19.731,0,0,0,25.639,259a18.791,18.791,0,0,0,2.274,2.571,29.627,29.627,0,0,0,2.274,1.978,22.547,22.547,0,0,0,26.9,0,21.731,21.731,0,0,0,2.274-1.978A22.828,22.828,0,0,0,61.634,259a17.338,17.338,0,0,0,1.335-1.978A.844.844,0,0,0,63.117,256.079Z" transform="translate(-24.165 -247.841)" />
      </g>
    </g>
  </g>
</svg>
