<svg xmlns="http://www.w3.org/2000/svg" xmlns:xlink="http://www.w3.org/1999/xlink" width="271.748" height="52.16" viewBox="0 0 271.748 52.16">
  <defs>
    <clipPath id="clip-path">
      <rect id="Rectangle_685" data-name="Rectangle 685" width="199.382" height="10.841" fill="none"/>
    </clipPath>
  </defs>
  <g id="Group_2557" data-name="Group 2557" transform="translate(-1098.252 -31)">
    <g id="Vector_Smart_Object" data-name="Vector Smart Object" transform="translate(1028.236 15.717)">
      <ellipse id="Ellipse_1" data-name="Ellipse 1" cx="11.12" cy="11.046" rx="11.12" ry="11.046" transform="translate(296.138 15.283)" fill="#1298ad"/>
      <path id="Path_1" data-name="Path 1" d="M277.848,62.388a4.156,4.156,0,0,1-7.168.287L262.77,50.253l-7.909-12.422a4.112,4.112,0,0,1,3.333-6.31l11.079,4.9a9.305,9.305,0,0,0,8.3-.386l10.194-5.7a4.116,4.116,0,0,1,3.835,6.022l-6.876,13.015Z" transform="translate(34.16 2.791)" fill="#1298ad"/>
      <ellipse id="Ellipse_2" data-name="Ellipse 2" cx="11.12" cy="11.046" rx="11.12" ry="11.046" transform="translate(311.662 15.344)" fill="#249384" opacity="0.51"/>
      <path id="Path_2" data-name="Path 2" d="M290.943,62.44a4.156,4.156,0,0,1-7.168.288L275.866,50.3l-7.909-12.422a4.112,4.112,0,0,1,3.333-6.31l11.078,4.9a9.308,9.308,0,0,0,8.3-.387l10.194-5.7a4.116,4.116,0,0,1,3.835,6.023l-6.876,13.015Z" transform="translate(36.589 2.8)" fill="#229384" opacity="0.51"/>
      <g id="Group_1" data-name="Group 1" transform="translate(70.016 21.342)">
        <path id="Path_3" data-name="Path 3" d="M79.607,26.352a.764.764,0,0,1,.766.761v8.476a.923.923,0,0,0,.246.684.655.655,0,0,0,.492.244H81.6v.973a.764.764,0,0,1-.766.762H80.57a2.185,2.185,0,0,1-1.434-.481.771.771,0,0,0-.869-.049,5.769,5.769,0,0,1-2.936.8,4.83,4.83,0,0,1-4.084-2,6.321,6.321,0,0,1-1.23-3.91,5.977,5.977,0,0,1,1.771-4.423A5.229,5.229,0,0,1,75.65,26.6a6.313,6.313,0,0,1,2.218.418.787.787,0,0,0,.765-.107l.5-.391a.772.772,0,0,1,.476-.164Zm-1.325,3.04a.77.77,0,0,0-.5-.717,4.725,4.725,0,0,0-1.691-.319,3.67,3.67,0,0,0-3.026,1.466,4.4,4.4,0,0,0-.959,2.835,4.668,4.668,0,0,0,.935,3.079,3.122,3.122,0,0,0,2.46,1.026,6.008,6.008,0,0,0,2.293-.49.772.772,0,0,0,.486-.711Z" transform="translate(-70.016 -19.29)" fill="#1298ad"/>
        <path id="Path_4" data-name="Path 4" d="M84.493,26.908a.871.871,0,0,1,.873.867v8.052a2.267,2.267,0,0,1-.59,1.564,2.1,2.1,0,0,1-1.648.758H79.72a.871.871,0,0,1-.873-.867h0a.87.87,0,0,1,.873-.867h2.62a.9.9,0,0,0,.689-.293.857.857,0,0,0,.246-.635v-7.71a.871.871,0,0,1,.873-.867ZM80.938,40.69a1.163,1.163,0,0,1,.849.354,1.148,1.148,0,0,1,.357.843,1.177,1.177,0,0,1-.357.867,1.165,1.165,0,0,1-.849.354,1.193,1.193,0,0,1-.873-.354,1.175,1.175,0,0,1-.357-.867,1.146,1.146,0,0,1,.357-.843A1.191,1.191,0,0,1,80.938,40.69Zm2.977,0a1.151,1.151,0,0,1,.861.354,1.168,1.168,0,0,1,.344.843,1.2,1.2,0,0,1-.344.867,1.208,1.208,0,0,1-1.71,0,1.175,1.175,0,0,1-.357-.867,1.146,1.146,0,0,1,.357-.843A1.161,1.161,0,0,1,83.915,40.69Z" transform="translate(-68.379 -19.186)" fill="#1298ad"/>
        <path id="Path_5" data-name="Path 5" d="M94.39,27.531v8.259a.625.625,0,0,0,.627.623h0a.625.625,0,0,1,.627.623v.489a.625.625,0,0,1-.627.623h-.044a.61.61,0,0,0-.613.545A5.256,5.256,0,0,1,92.2,42.718a7.26,7.26,0,0,1-4.4,1.246q-.32,0-.77-.014a.629.629,0,0,1-.467-.232l-.513-.633a.532.532,0,0,1-.119-.336h0a.532.532,0,0,1,.571-.532q.466.037.979.037,4.822,0,4.822-4.4V27.531a.625.625,0,0,1,.627-.623h.837A.625.625,0,0,1,94.39,27.531Z" transform="translate(-67.065 -19.186)" fill="#1298ad"/>
        <path id="Path_6" data-name="Path 6" d="M115.7,28.116a.87.87,0,0,1,.873.867v8.052a2.208,2.208,0,0,1-.074.586h.455a.87.87,0,0,1,.873.867V38.7a.662.662,0,0,1-.665.66h0a.667.667,0,0,1-.519-.248l-.489-.608h-.074a2.125,2.125,0,0,1-1.722.855h-4.427a.875.875,0,0,1-.682-.326l-.427-.53h-.074a2.125,2.125,0,0,1-1.722.855H102.6a.876.876,0,0,1-.682-.326l-.427-.53h-.074a2.125,2.125,0,0,1-1.722.855H94.055a.871.871,0,0,1-.873-.867h0a.87.87,0,0,1,.873-.867h3.961a1.8,1.8,0,0,0,1.808-1.8V31.794a.87.87,0,0,1,.873-.867h.344a.87.87,0,0,1,.873.867v5.242a3.275,3.275,0,0,1-.049.586h3.481a1.8,1.8,0,0,0,1.808-1.8V30.376a.871.871,0,0,1,.873-.867h.344a.87.87,0,0,1,.873.867v6.659a2.208,2.208,0,0,1-.074.586h3.506a1.8,1.8,0,0,0,1.808-1.8V28.984a.871.871,0,0,1,.874-.867Zm-8.967-5.375a1.165,1.165,0,0,1,.849.354,1.148,1.148,0,0,1,.357.843,1.177,1.177,0,0,1-.357.867,1.163,1.163,0,0,1-.849.354,1.191,1.191,0,0,1-.873-.354,1.175,1.175,0,0,1-.357-.867,1.146,1.146,0,0,1,.357-.843A1.192,1.192,0,0,1,106.736,22.741Zm1.476-2.346a1.1,1.1,0,0,1,.824.342,1.146,1.146,0,0,1,0,1.613,1.149,1.149,0,1,1-1.636-1.613A1.116,1.116,0,0,1,108.212,20.394Zm1.5,2.346a1.165,1.165,0,0,1,.849.354,1.148,1.148,0,0,1,.357.843,1.177,1.177,0,0,1-.357.867,1.194,1.194,0,0,1-1.7,0,1.175,1.175,0,0,1-.357-.867,1.146,1.146,0,0,1,.357-.843A1.163,1.163,0,0,1,109.713,22.741Z" transform="translate(-65.72 -20.394)" fill="#1298ad"/>
        <path id="Path_7" data-name="Path 7" d="M118.877,26.908a.651.651,0,0,1,.652.648v8.271a2.394,2.394,0,0,1-.074.586h.651a.65.65,0,0,1,.652.648V37.5a.651.651,0,0,1-.652.648h0a.655.655,0,0,1-.5-.234l-.518-.621h-.074a2.081,2.081,0,0,1-1.722.855h-3.628a.651.651,0,0,1-.652-.648v-.439a.65.65,0,0,1,.652-.648H116.5a.868.868,0,0,0,.64-.244.884.884,0,0,0,.3-.684V27.556a.65.65,0,0,1,.652-.648ZM118.3,40.69a1.191,1.191,0,0,1,.873.354,1.148,1.148,0,0,1,.357.843,1.177,1.177,0,0,1-.357.867,1.193,1.193,0,0,1-.873.354,1.163,1.163,0,0,1-.849-.354,1.175,1.175,0,0,1-.357-.867,1.146,1.146,0,0,1,.357-.843A1.161,1.161,0,0,1,118.3,40.69Z" transform="translate(-62.043 -19.186)" fill="#1298ad"/>
        <path id="Path_8" data-name="Path 8" d="M124.249,21.632a.87.87,0,0,1,.873.867V36.806a2.23,2.23,0,0,1-.64,1.613,2.113,2.113,0,0,1-1.6.709h-3.407a.871.871,0,0,1-.873-.867h0a.87.87,0,0,1,.873-.867h2.62a.848.848,0,0,0,.713-.318.934.934,0,0,0,.221-.611V22.5a.87.87,0,0,1,.873-.867Z" transform="translate(-61.006 -20.165)" fill="#1298ad"/>
        <path id="Path_9" data-name="Path 9" d="M129.057,22.389V38.523a.755.755,0,0,1-.281.587l-.566.458a.766.766,0,0,1-.481.17h0a.76.76,0,0,1-.763-.758V22.389a.76.76,0,0,1,.763-.757h.566A.759.759,0,0,1,129.057,22.389Z" transform="translate(-59.455 -20.165)" fill="#1298ad"/>
        <path id="Path_10" data-name="Path 10" d="M138.072,27.532a.822.822,0,0,1,.743-.819q.554-.051,1.151-.052a6.027,6.027,0,0,1,4.4,1.637,5.228,5.228,0,0,1,1.5,3.836v3.739a2.279,2.279,0,0,1-.615,1.613,2.038,2.038,0,0,1-1.574.709h-7.267a.824.824,0,0,1-.827-.821v-.093a.824.824,0,0,1,.827-.821h6.455a.813.813,0,0,0,.91-.929v-3.1a4.1,4.1,0,0,0-1.058-2.883,4.729,4.729,0,0,0-3.493-1.2c-.109,0-.214,0-.315.006a.819.819,0,0,1-.842-.821Z" transform="translate(-57.856 -19.232)" fill="#1298ad"/>
        <path id="Path_11" data-name="Path 11" d="M152.227,26.908a.537.537,0,0,1,.539.535V37.929a5.809,5.809,0,0,1-1.55,4.276,6.016,6.016,0,0,1-3.247,1.613,9.423,9.423,0,0,1-1.722.147q-.459,0-.888-.015a.535.535,0,0,1-.4-.2l-.538-.664a.532.532,0,0,1-.119-.336h0a.532.532,0,0,1,.571-.532q.466.037.979.037,4.82,0,4.821-4.4V27.443a.537.537,0,0,1,.539-.535Z" transform="translate(-56.239 -19.186)" fill="#1298ad"/>
        <path id="Path_12" data-name="Path 12" d="M157.215,22.389V38.523a.755.755,0,0,1-.281.587l-.566.458a.764.764,0,0,1-.481.17h0a.76.76,0,0,1-.763-.758V22.389a.76.76,0,0,1,.763-.757h.566A.759.759,0,0,1,157.215,22.389Z" transform="translate(-54.233 -20.165)" fill="#1298ad"/>
        <path id="Path_13" data-name="Path 13" d="M165.42,38.195a5.213,5.213,0,0,1-4.305-1.857,6.064,6.064,0,0,1-1.254-3.959,5.314,5.314,0,0,1,5.633-5.718,5.207,5.207,0,0,1,3.2.953,4.149,4.149,0,0,1,1.549,3.494v4.961a.392.392,0,0,0,.394.391h0a.392.392,0,0,1,.394.391V37.8a.393.393,0,0,1-.394.391h-.025a.394.394,0,0,0-.39.367,5.648,5.648,0,0,1-1.528,3.664,5.791,5.791,0,0,1-2.878,1.539,8.979,8.979,0,0,1-2.116.244q-.494,0-.954-.017a.392.392,0,0,1-.291-.147l-.612-.755a.39.39,0,0,1-.087-.245v-.208a.394.394,0,0,1,.436-.388q.539.049,1.114.049,4.44,0,4.794-3.666a.4.4,0,0,0-.392-.439Zm2.706-7.086a2.666,2.666,0,0,0-.738-1.979,2.572,2.572,0,0,0-1.895-.709,3.245,3.245,0,0,0-2.6,1.1,4.531,4.531,0,0,0-.947,3.054,4.061,4.061,0,0,0,.959,2.81A3.174,3.174,0,0,0,165.4,36.46h2.337a.392.392,0,0,0,.394-.391Z" transform="translate(-53.354 -19.232)" fill="#1298ad"/>
        <path id="Path_14" data-name="Path 14" d="M171.778,36.456a.869.869,0,0,0,.812-1.179,7.341,7.341,0,0,1-.435-2.56,6.051,6.051,0,0,1,1.673-4.57,5.708,5.708,0,0,1,3.96-1.466,5.244,5.244,0,0,1,2.928.758,4.083,4.083,0,0,1,1.771,3.665v4.423a.99.99,0,0,0,.172.586.751.751,0,0,0,.59.342h.049v1.735h-.615a2.183,2.183,0,0,1-1.234-.349.9.9,0,0,0-1.1.065,4.156,4.156,0,0,1-2.81,1.017,5.059,5.059,0,0,1-3.715-1.588h-.049l-.427.53a.876.876,0,0,1-.682.326H169.19a.871.871,0,0,1-.873-.867h0a.87.87,0,0,1,.873-.867ZM180.4,31.1a2.642,2.642,0,0,0-.812-2.028,2.611,2.611,0,0,0-1.845-.66,3.124,3.124,0,0,0-2.534,1.161,4.621,4.621,0,0,0-.959,3.042,5.272,5.272,0,0,0,1.009,3.3,2.91,2.91,0,0,0,2.411,1.271,3.686,3.686,0,0,0,2.455-1.037.84.84,0,0,0,.275-.633Z" transform="translate(-51.786 -19.228)" fill="#1298ad"/>
        <path id="Path_15" data-name="Path 15" d="M186.308,21.632a.6.6,0,0,1,.6.6V36.806a2.418,2.418,0,0,1-.074.586h.7a.6.6,0,0,1,.6.6v.54a.6.6,0,0,1-.6.6h0a.6.6,0,0,1-.438-.188l-.633-.668h-.074a2.081,2.081,0,0,1-1.722.855h-3.679a.6.6,0,0,1-.6-.6v-.54a.6.6,0,0,1,.6-.6h2.892a.943.943,0,0,0,.935-.929V22.229a.6.6,0,0,1,.6-.6Z" transform="translate(-49.547 -20.165)" fill="#1298ad"/>
        <path id="Path_16" data-name="Path 16" d="M191.629,21.632a.87.87,0,0,1,.873.867V36.806a2.229,2.229,0,0,1-.64,1.613,2.111,2.111,0,0,1-1.6.709h-3.407a.87.87,0,0,1-.873-.867h0a.87.87,0,0,1,.873-.867h2.619a.847.847,0,0,0,.713-.318.932.932,0,0,0,.222-.611V22.5a.87.87,0,0,1,.873-.867Z" transform="translate(-48.51 -20.165)" fill="#1298ad"/>
        <path id="Path_17" data-name="Path 17" d="M202.46,37.929a.847.847,0,0,0,.222-1.32q-.138-.156-.262-.325a6.435,6.435,0,0,1-1.082-3.836,5.479,5.479,0,0,1,1.574-4.179,5.269,5.269,0,0,1,3.764-1.319,9.082,9.082,0,0,1,1.364.108.851.851,0,0,1,.727.836h0a.845.845,0,0,1-.96.832,6.79,6.79,0,0,0-.91-.066q-3.444,0-3.444,3.91a3.8,3.8,0,0,0,.873,2.664,3.152,3.152,0,0,0,2.448.953h.369a31.015,31.015,0,0,1,3.961-.342h.246v.434a.839.839,0,0,1-.19.531l-.424.518a.851.851,0,0,1-.636.307,15.551,15.551,0,0,0-3.989.678,15.9,15.9,0,0,0-3.492,1.5.845.845,0,0,1-1.14-.279l-.018-.03a.835.835,0,0,1,.278-1.168Q202.063,38.138,202.46,37.929Z" transform="translate(-45.664 -19.179)" fill="#249384"/>
        <path id="Path_18" data-name="Path 18" d="M211.9,21.632a1.042,1.042,0,0,1,1.045,1.039V36.464a.883.883,0,0,0,.935.929h.32v.7a1.042,1.042,0,0,1-1.046,1.039h-.086a2.033,2.033,0,0,1-1.377-.513,2.263,2.263,0,0,1-.837-1.808V22.67a1.042,1.042,0,0,1,1.046-1.039Z" transform="translate(-43.898 -20.165)" fill="#249384"/>
        <path id="Path_19" data-name="Path 19" d="M218.6,27.749a.65.65,0,0,1,.652.648v8.271a2.394,2.394,0,0,1-.074.586h.651a.65.65,0,0,1,.653.648v.438a.651.651,0,0,1-.653.649h0a.653.653,0,0,1-.5-.235l-.518-.62h-.074a2.081,2.081,0,0,1-1.722.855h-3.628a.651.651,0,0,1-.653-.649V37.9a.65.65,0,0,1,.653-.648h2.84a.869.869,0,0,0,.64-.244.884.884,0,0,0,.3-.684V28.4a.651.651,0,0,1,.653-.648Zm-.405-5.375a1.193,1.193,0,0,1,.873.354,1.146,1.146,0,0,1,.357.843,1.175,1.175,0,0,1-.357.867,1.192,1.192,0,0,1-.873.354,1.162,1.162,0,0,1-.849-.354,1.175,1.175,0,0,1-.357-.867,1.146,1.146,0,0,1,.357-.843A1.164,1.164,0,0,1,218.191,22.374Z" transform="translate(-43.549 -20.027)" fill="#249384"/>
        <path id="Path_20" data-name="Path 20" d="M224.189,27.749a.651.651,0,0,1,.653.648v8.271a2.419,2.419,0,0,1-.074.586h.651a.65.65,0,0,1,.652.648v.438a.65.65,0,0,1-.652.649h0a.654.654,0,0,1-.5-.235l-.518-.62h-.073a2.082,2.082,0,0,1-1.723.855h-3.628a.65.65,0,0,1-.652-.649V37.9a.65.65,0,0,1,.652-.648h2.84a.87.87,0,0,0,.64-.244.884.884,0,0,0,.3-.684V28.4a.651.651,0,0,1,.653-.648Zm-3.332-5.375a1.151,1.151,0,0,1,.861.354,1.166,1.166,0,0,1,.345.843,1.2,1.2,0,0,1-.345.867,1.149,1.149,0,0,1-.861.354,1.214,1.214,0,0,1-1.206-1.222,1.146,1.146,0,0,1,.357-.843A1.165,1.165,0,0,1,220.857,22.374Zm3,0a1.165,1.165,0,0,1,.849.354,1.148,1.148,0,0,1,.357.843,1.177,1.177,0,0,1-.357.867,1.163,1.163,0,0,1-.849.354,1.19,1.19,0,0,1-.873-.354,1.173,1.173,0,0,1-.357-.867,1.144,1.144,0,0,1,.357-.843A1.192,1.192,0,0,1,223.858,22.374Z" transform="translate(-42.512 -20.027)" fill="#249384"/>
        <path id="Path_21" data-name="Path 21" d="M228.245,36.46a.5.5,0,0,0,.426-.774,5.988,5.988,0,0,1-.966-3.429,5.368,5.368,0,0,1,1.821-4.3,5.869,5.869,0,0,1,3.936-1.3,9.517,9.517,0,0,1,2.352.312.508.508,0,0,1,.378.492v.615a.507.507,0,0,1-.612.492,9.491,9.491,0,0,0-1.922-.225,3.665,3.665,0,0,0-2.841,1.112,4.365,4.365,0,0,0-1.021,3.067,4.114,4.114,0,0,0,1.082,2.81,3.059,3.059,0,0,0,2.337,1.124h4.461a.507.507,0,0,1,.508.5h0a.5.5,0,0,1-.114.319l-.595.726a.508.508,0,0,1-.394.186H224.424a.506.506,0,0,1-.508-.5v-.726a.506.506,0,0,1,.508-.5Z" transform="translate(-41.475 -19.232)" fill="#249384"/>
        <path id="Path_22" data-name="Path 22" d="M240.347,22.389V38.523a.754.754,0,0,1-.281.587l-.566.458a.767.767,0,0,1-.482.17h0a.76.76,0,0,1-.762-.758V22.389a.759.759,0,0,1,.762-.757h.566A.76.76,0,0,1,240.347,22.389Z" transform="translate(-38.815 -20.165)" fill="#249384"/>
      </g>
      <ellipse id="Ellipse_3" data-name="Ellipse 3" cx="1.218" cy="1.209" rx="1.218" ry="1.209" transform="translate(72.861 24.214)" fill="#1099ae"/>
      <ellipse id="Ellipse_4" data-name="Ellipse 4" cx="1.218" cy="1.209" rx="1.218" ry="1.209" transform="translate(75.847 24.214)" fill="#1099ae"/>
    </g>
    <g id="Group_2556" data-name="Group 2556" transform="translate(1099.834 66.739)">
      <path id="Path_5007" data-name="Path 5007" d="M0,.285V8.419H5.691V7.426H1.282V4.789H4.889V3.809H1.282V1.278H5.691V.285Z" transform="translate(0 -0.155)" fill="#239384"/>
      <path id="Path_5008" data-name="Path 5008" d="M15.835,8.264h1.242V2.353H15.835Zm0-7.07h1.229V0H15.835Z" transform="translate(-8.621 0)" fill="#239384"/>
      <g id="Group_2555" data-name="Group 2555" transform="translate(0 0)">
        <g id="Group_2554" data-name="Group 2554" clip-path="url(#clip-path)">
          <path id="Path_5009" data-name="Path 5009" d="M22.574,8.9a1.17,1.17,0,0,1-.568-.674,3.946,3.946,0,0,1-.174-1.312V4h-.9V3.059h.9V1.3h1.242V3.059h1.964V4H23.075V6.711a5.413,5.413,0,0,0,.047.834.684.684,0,0,0,.22.426.859.859,0,0,0,.561.148l1.136-.059.08.9a10.31,10.31,0,0,1-1.443.142,2.468,2.468,0,0,1-1.1-.2" transform="translate(-11.4 -0.706)" fill="#239384"/>
          <path id="Path_5010" data-name="Path 5010" d="M32.609,0h1.229V1.194H32.609Zm0,2.353h1.242V8.264H32.609Z" transform="translate(-17.754 0)" fill="#239384"/>
          <path id="Path_5011" data-name="Path 5011" d="M39.354,5.009h1.229V5.4A5.365,5.365,0,0,1,41.625,5a4.042,4.042,0,0,1,.989-.118,2.521,2.521,0,0,1,1.322.3,1.605,1.605,0,0,1,.682.917,5.658,5.658,0,0,1,.2,1.684V10.92H43.575V7.8a5.11,5.11,0,0,0-.1-1.152.947.947,0,0,0-.374-.591,1.427,1.427,0,0,0-.795-.183,4.481,4.481,0,0,0-1.483.272l-.227.095V10.92H39.354Z" transform="translate(-21.426 -2.656)" fill="#239384"/>
          <path id="Path_5012" data-name="Path 5012" d="M54.8,10.577a1.793,1.793,0,0,1-.494-1.36,1.547,1.547,0,0,1,.508-1.282,3,3,0,0,1,1.617-.5l1.9-.154V6.818a.974.974,0,0,0-.254-.751,1.078,1.078,0,0,0-.748-.231q-1.123,0-2.592.142l-.04-.8a12.933,12.933,0,0,1,2.632-.3,2.567,2.567,0,0,1,1.709.466,1.857,1.857,0,0,1,.534,1.472V9.666a.516.516,0,0,0,.18.361,1,1,0,0,0,.487.171l-.04.851a3.663,3.663,0,0,1-.975-.112,2.057,2.057,0,0,1-.708-.349,5.992,5.992,0,0,1-2.271.461,2.01,2.01,0,0,1-1.443-.473M58.049,9.9l.28-.083V8.082l-1.737.142a1.27,1.27,0,0,0-.768.278.881.881,0,0,0-.248.68q0,.946.9.946A5.559,5.559,0,0,0,58.049,9.9" transform="translate(-29.568 -2.656)" fill="#239384"/>
          <path id="Path_5013" data-name="Path 5013" d="M69.582,10.577a1.793,1.793,0,0,1-.494-1.36A1.547,1.547,0,0,1,69.6,7.935a3,3,0,0,1,1.617-.5l1.9-.154V6.818a.974.974,0,0,0-.254-.751,1.08,1.08,0,0,0-.748-.231q-1.123,0-2.592.142l-.04-.8a12.94,12.94,0,0,1,2.632-.3,2.568,2.568,0,0,1,1.71.466,1.857,1.857,0,0,1,.534,1.472V9.666a.514.514,0,0,0,.18.361,1,1,0,0,0,.487.171l-.04.851A3.661,3.661,0,0,1,74,10.938a2.057,2.057,0,0,1-.708-.349,5.992,5.992,0,0,1-2.271.461,2.009,2.009,0,0,1-1.443-.473M72.829,9.9l.281-.083V8.082l-1.737.142A1.272,1.272,0,0,0,70.6,8.5a.883.883,0,0,0-.247.68q0,.946.9.946A5.553,5.553,0,0,0,72.829,9.9" transform="translate(-37.614 -2.656)" fill="#239384"/>
          <path id="Path_5014" data-name="Path 5014" d="M98.479.285V8.419H97.209V4.837H92.921V8.419H91.639V.285h1.282V3.832h4.288V.285Z" transform="translate(-49.892 -0.155)" fill="#239384"/>
          <path id="Path_5015" data-name="Path 5015" d="M111.775,10.915a1.546,1.546,0,0,1-.655-.922,6.405,6.405,0,0,1-.187-1.744V5.164h1.242V8.249a5.91,5.91,0,0,0,.093,1.224.871.871,0,0,0,.354.574,1.512,1.512,0,0,0,.795.165,3.556,3.556,0,0,0,.835-.094,6.594,6.594,0,0,0,.848-.272V5.164h1.242v5.911H115.1v-.39a5.266,5.266,0,0,1-1.009.4,3.861,3.861,0,0,1-.982.118,2.549,2.549,0,0,1-1.336-.29" transform="translate(-60.397 -2.811)" fill="#239384"/>
          <path id="Path_5016" data-name="Path 5016" d="M126.857,5.009h1.229V5.4a5.4,5.4,0,0,1,.962-.39,3.387,3.387,0,0,1,.935-.13,3.01,3.01,0,0,1,.962.148,1.537,1.537,0,0,1,.695.443,6.3,6.3,0,0,1,1.169-.425,5.09,5.09,0,0,1,1.289-.165,2.418,2.418,0,0,1,1.3.3,1.629,1.629,0,0,1,.668.923,5.684,5.684,0,0,1,.2,1.678V10.92h-1.243V7.8a5.083,5.083,0,0,0-.1-1.152.968.968,0,0,0-.36-.591,1.332,1.332,0,0,0-.768-.183,4.126,4.126,0,0,0-.775.077,4.189,4.189,0,0,0-.708.195l-.24.095a6.357,6.357,0,0,1,.147,1.608V10.92h-1.256V7.87a5.936,5.936,0,0,0-.093-1.212.955.955,0,0,0-.354-.6,1.332,1.332,0,0,0-.769-.183,3.734,3.734,0,0,0-.768.082,4.111,4.111,0,0,0-.661.189l-.214.095V10.92h-1.242Z" transform="translate(-69.066 -2.656)" fill="#239384"/>
          <path id="Path_5017" data-name="Path 5017" d="M150.957,10.577a1.793,1.793,0,0,1-.494-1.36,1.547,1.547,0,0,1,.507-1.282,3,3,0,0,1,1.617-.5l1.9-.154V6.818a.974.974,0,0,0-.254-.751,1.08,1.08,0,0,0-.748-.231q-1.123,0-2.592.142l-.04-.8a12.94,12.94,0,0,1,2.632-.3,2.568,2.568,0,0,1,1.71.466,1.857,1.857,0,0,1,.534,1.472V9.666a.514.514,0,0,0,.18.361,1,1,0,0,0,.487.171l-.04.851a3.661,3.661,0,0,1-.975-.112,2.057,2.057,0,0,1-.708-.349,5.992,5.992,0,0,1-2.271.461,2.009,2.009,0,0,1-1.443-.473M154.2,9.9l.281-.083V8.082l-1.737.142a1.272,1.272,0,0,0-.768.278.883.883,0,0,0-.247.68q0,.946.9.946A5.553,5.553,0,0,0,154.2,9.9" transform="translate(-81.918 -2.656)" fill="#239384"/>
          <path id="Path_5018" data-name="Path 5018" d="M166.181,5.009h1.229V5.4a5.365,5.365,0,0,1,1.042-.4,4.042,4.042,0,0,1,.989-.118,2.522,2.522,0,0,1,1.322.3,1.605,1.605,0,0,1,.682.917,5.673,5.673,0,0,1,.2,1.684V10.92H170.4V7.8a5.111,5.111,0,0,0-.1-1.152.947.947,0,0,0-.374-.591,1.428,1.428,0,0,0-.795-.183,4.481,4.481,0,0,0-1.483.272l-.227.095V10.92h-1.242Z" transform="translate(-90.476 -2.656)" fill="#239384"/>
          <path id="Path_5019" data-name="Path 5019" d="M188.907.286h3.447a3.507,3.507,0,0,1,2.278.627,2.332,2.332,0,0,1,.754,1.9A2.274,2.274,0,0,1,193.8,5.181l1.63,3.239h-1.4l-1.483-3h-2.351v3h-1.282Zm3.46,4.15a1.8,1.8,0,0,0,1.276-.408,1.552,1.552,0,0,0,.434-1.188,1.518,1.518,0,0,0-.434-1.17,1.838,1.838,0,0,0-1.289-.4h-2.164V4.436Z" transform="translate(-102.849 -0.156)" fill="#239384"/>
          <path id="Path_5020" data-name="Path 5020" d="M206.364,10.347a3.2,3.2,0,0,1-.654-2.228,3.621,3.621,0,0,1,.7-2.442,2.744,2.744,0,0,1,2.171-.8,2.417,2.417,0,0,1,2.726,2.743l-.08.8h-4.262a2.375,2.375,0,0,0,.187.987,1.02,1.02,0,0,0,.561.5,3.069,3.069,0,0,0,1.1.154q.414,0,.935-.018c.348-.012.659-.03.935-.053l.374-.035.027.851a17.743,17.743,0,0,1-2.525.236,2.888,2.888,0,0,1-2.191-.7m3.7-2.784a2.116,2.116,0,0,0-.341-1.359,1.426,1.426,0,0,0-1.143-.4,1.6,1.6,0,0,0-1.229.42,1.978,1.978,0,0,0-.4,1.342Z" transform="translate(-111.997 -2.656)" fill="#239384"/>
          <path id="Path_5021" data-name="Path 5021" d="M220.967,10.875l-.4-.059.054-.946a21.35,21.35,0,0,0,2.311.2A2.363,2.363,0,0,0,224,9.882a.643.643,0,0,0,.361-.615.594.594,0,0,0-.18-.467,1.136,1.136,0,0,0-.461-.236,6.463,6.463,0,0,0-.8-.148l-.32-.048a5.924,5.924,0,0,1-1.209-.272,1.472,1.472,0,0,1-.688-.484,1.425,1.425,0,0,1-.241-.875q0-1.833,2.538-1.832a14.142,14.142,0,0,1,2,.177l.388.071-.027.923a19.728,19.728,0,0,0-2.3-.189q-1.363,0-1.363.733a.52.52,0,0,0,.174.42,1.111,1.111,0,0,0,.448.219q.273.07.781.153.094.012.374.059a6.664,6.664,0,0,1,1.235.3,1.354,1.354,0,0,1,.668.5,1.6,1.6,0,0,1,.22.9,1.64,1.64,0,0,1-.641,1.436,3.445,3.445,0,0,1-1.977.455,14.053,14.053,0,0,1-2.018-.189" transform="translate(-120.028 -2.67)" fill="#239384"/>
          <path id="Path_5022" data-name="Path 5022" d="M234.954,10.311a3.347,3.347,0,0,1-.682-2.323,3.386,3.386,0,0,1,.695-2.364,3.712,3.712,0,0,1,4.469.006,3.414,3.414,0,0,1,.688,2.358,3.351,3.351,0,0,1-.682,2.317,3.765,3.765,0,0,1-4.488.006m3.239-.42a1.107,1.107,0,0,0,.5-.65,4.218,4.218,0,0,0,.147-1.253,4.293,4.293,0,0,0-.154-1.3,1.112,1.112,0,0,0-.507-.656,2.053,2.053,0,0,0-.982-.195,2.091,2.091,0,0,0-.989.195,1.1,1.1,0,0,0-.514.662,4.308,4.308,0,0,0-.154,1.295,4.213,4.213,0,0,0,.147,1.247,1.1,1.1,0,0,0,.508.656,2.073,2.073,0,0,0,1,.2,2.032,2.032,0,0,0,1-.2" transform="translate(-127.548 -2.656)" fill="#239384"/>
          <path id="Path_5023" data-name="Path 5023" d="M251.154,10.915a1.544,1.544,0,0,1-.655-.922,6.4,6.4,0,0,1-.187-1.744V5.164h1.242V8.249a5.872,5.872,0,0,0,.094,1.224.869.869,0,0,0,.354.574,1.512,1.512,0,0,0,.795.165,3.553,3.553,0,0,0,.835-.094,6.576,6.576,0,0,0,.849-.272V5.164h1.242v5.911H254.48v-.39a5.29,5.29,0,0,1-1.009.4,3.862,3.862,0,0,1-.982.118,2.547,2.547,0,0,1-1.336-.29" transform="translate(-136.28 -2.811)" fill="#239384"/>
          <path id="Path_5024" data-name="Path 5024" d="M266.235,5.009h1.229v.745a7.281,7.281,0,0,1,2.351-.875V5.99a10.41,10.41,0,0,0-1.082.26q-.561.166-.935.319l-.32.13V10.92h-1.243Z" transform="translate(-144.949 -2.656)" fill="#239384"/>
          <path id="Path_5025" data-name="Path 5025" d="M276.882,10.731a1.833,1.833,0,0,1-.855-.993,5.011,5.011,0,0,1-.261-1.773,3.855,3.855,0,0,1,.581-2.276,2.424,2.424,0,0,1,2.1-.81q.387,0,.829.041t1.189.171l-.04.875q-1.135-.095-1.6-.095a2.559,2.559,0,0,0-1.1.189,1.052,1.052,0,0,0-.541.638,4.129,4.129,0,0,0-.154,1.277,3.909,3.909,0,0,0,.154,1.241,1.1,1.1,0,0,0,.541.638,2.528,2.528,0,0,0,1.135.2l1.576-.107.04.9a14.8,14.8,0,0,1-2.017.2,3.351,3.351,0,0,1-1.583-.319" transform="translate(-150.139 -2.656)" fill="#239384"/>
          <path id="Path_5026" data-name="Path 5026" d="M289.117,10.347a3.2,3.2,0,0,1-.655-2.228,3.621,3.621,0,0,1,.7-2.442,2.744,2.744,0,0,1,2.171-.8,2.417,2.417,0,0,1,2.726,2.743l-.08.8h-4.262a2.39,2.39,0,0,0,.187.987,1.02,1.02,0,0,0,.562.5,3.064,3.064,0,0,0,1.1.154q.414,0,.935-.018c.348-.012.659-.03.935-.053l.374-.035.027.851a17.744,17.744,0,0,1-2.525.236,2.886,2.886,0,0,1-2.191-.7m3.7-2.784a2.116,2.116,0,0,0-.341-1.359,1.426,1.426,0,0,0-1.143-.4,1.6,1.6,0,0,0-1.229.42,1.98,1.98,0,0,0-.4,1.342Z" transform="translate(-157.051 -2.656)" fill="#239384"/>
          <path id="Path_5027" data-name="Path 5027" d="M303.721,10.875l-.4-.059.054-.946a21.349,21.349,0,0,0,2.311.2,2.364,2.364,0,0,0,1.069-.189.643.643,0,0,0,.361-.615.594.594,0,0,0-.18-.467,1.136,1.136,0,0,0-.461-.236,6.464,6.464,0,0,0-.8-.148l-.32-.048a5.924,5.924,0,0,1-1.209-.272,1.472,1.472,0,0,1-.688-.484,1.425,1.425,0,0,1-.241-.875q0-1.833,2.538-1.832a14.142,14.142,0,0,1,2,.177l.388.071-.027.923a19.728,19.728,0,0,0-2.3-.189q-1.363,0-1.363.733a.521.521,0,0,0,.174.42,1.111,1.111,0,0,0,.448.219q.273.07.781.153.094.012.374.059a6.664,6.664,0,0,1,1.235.3,1.354,1.354,0,0,1,.668.5,1.6,1.6,0,0,1,.22.9,1.64,1.64,0,0,1-.641,1.436,3.444,3.444,0,0,1-1.977.455,14.052,14.052,0,0,1-2.018-.189" transform="translate(-165.082 -2.67)" fill="#239384"/>
          <path id="Path_5028" data-name="Path 5028" d="M325.077,7.927a2.4,2.4,0,0,1-1.049-1.359,7.9,7.9,0,0,1-.287-2.359,8,8,0,0,1,.294-2.412A2.373,2.373,0,0,1,325.07.449a4.085,4.085,0,0,1,2.1-.449,13.579,13.579,0,0,1,2.565.284l-.04.933a14.734,14.734,0,0,0-2.271-.2,2.919,2.919,0,0,0-1.509.313,1.565,1.565,0,0,0-.681,1.01,8.52,8.52,0,0,0-.161,2.022,7.165,7.165,0,0,0,.167,1.767,1.5,1.5,0,0,0,.681.934,3.092,3.092,0,0,0,1.57.313,15.152,15.152,0,0,0,2.2-.2l.04.958a14.622,14.622,0,0,1-2.471.26,4.22,4.22,0,0,1-2.191-.466" transform="translate(-176.258 0)" fill="#239384"/>
          <path id="Path_5029" data-name="Path 5029" d="M339.846,10.311a3.347,3.347,0,0,1-.681-2.323,3.386,3.386,0,0,1,.695-2.364,3.712,3.712,0,0,1,4.469.006,3.414,3.414,0,0,1,.688,2.358,3.351,3.351,0,0,1-.681,2.317,3.765,3.765,0,0,1-4.488.006m3.24-.42a1.107,1.107,0,0,0,.5-.65,4.217,4.217,0,0,0,.147-1.253,4.293,4.293,0,0,0-.154-1.3,1.112,1.112,0,0,0-.508-.656,2.053,2.053,0,0,0-.982-.195,2.091,2.091,0,0,0-.989.195,1.1,1.1,0,0,0-.514.662,4.308,4.308,0,0,0-.154,1.295,4.213,4.213,0,0,0,.147,1.247,1.1,1.1,0,0,0,.508.656,2.073,2.073,0,0,0,1,.2,2.032,2.032,0,0,0,1-.2" transform="translate(-184.656 -2.656)" fill="#239384"/>
          <path id="Path_5030" data-name="Path 5030" d="M355.353,5.009h1.229V5.4a5.367,5.367,0,0,1,.962-.39,3.379,3.379,0,0,1,.935-.13,3.019,3.019,0,0,1,.962.148,1.539,1.539,0,0,1,.694.443,6.32,6.32,0,0,1,1.169-.425,5.084,5.084,0,0,1,1.289-.165,2.42,2.42,0,0,1,1.3.3,1.629,1.629,0,0,1,.668.923,5.683,5.683,0,0,1,.2,1.678V10.92h-1.242V7.8a5.053,5.053,0,0,0-.1-1.152.966.966,0,0,0-.36-.591,1.331,1.331,0,0,0-.768-.183,4.442,4.442,0,0,0-1.482.272l-.241.095a6.356,6.356,0,0,1,.147,1.608V10.92h-1.256V7.87a5.969,5.969,0,0,0-.093-1.212.959.959,0,0,0-.354-.6,1.334,1.334,0,0,0-.769-.183,3.742,3.742,0,0,0-.769.082,4.118,4.118,0,0,0-.661.189l-.213.095V10.92h-1.243Z" transform="translate(-193.469 -2.656)" fill="#239384"/>
          <path id="Path_5031" data-name="Path 5031" d="M379.9,5.009h1.229V5.4a5.05,5.05,0,0,1,.969-.4,3.552,3.552,0,0,1,.955-.124,2.195,2.195,0,0,1,1.837.739,3.778,3.778,0,0,1,.581,2.335,4.61,4.61,0,0,1-.294,1.8,1.877,1.877,0,0,1-.942.987,4.076,4.076,0,0,1-1.729.307,9.1,9.1,0,0,1-1.363-.118V13.5H379.9ZM383.8,9.6a2.623,2.623,0,0,0,.394-1.62,2.872,2.872,0,0,0-.347-1.608,1.229,1.229,0,0,0-1.082-.5,3.231,3.231,0,0,0-.721.089,4.514,4.514,0,0,0-.682.207l-.227.106v3.7a12.282,12.282,0,0,0,1.309.118,1.635,1.635,0,0,0,1.356-.5" transform="translate(-206.832 -2.656)" fill="#239384"/>
          <path id="Path_5032" data-name="Path 5032" d="M395.052,10.577a1.793,1.793,0,0,1-.494-1.36,1.547,1.547,0,0,1,.507-1.282,3,3,0,0,1,1.617-.5l1.9-.154V6.818a.974.974,0,0,0-.254-.751,1.079,1.079,0,0,0-.749-.231q-1.122,0-2.591.142l-.04-.8a12.946,12.946,0,0,1,2.631-.3,2.568,2.568,0,0,1,1.71.466,1.857,1.857,0,0,1,.534,1.472V9.666a.514.514,0,0,0,.18.361,1,1,0,0,0,.488.171l-.04.851a3.665,3.665,0,0,1-.975-.112,2.057,2.057,0,0,1-.708-.349,6,6,0,0,1-2.271.461,2.009,2.009,0,0,1-1.443-.473M398.3,9.9l.28-.083V8.082l-1.737.142a1.274,1.274,0,0,0-.769.278.886.886,0,0,0-.247.68q0,.946.9.946A5.559,5.559,0,0,0,398.3,9.9" transform="translate(-214.814 -2.656)" fill="#239384"/>
          <path id="Path_5033" data-name="Path 5033" d="M410.277,5.009h1.229V5.4a5.365,5.365,0,0,1,1.042-.4,4.042,4.042,0,0,1,.989-.118,2.525,2.525,0,0,1,1.323.3,1.606,1.606,0,0,1,.681.917,5.673,5.673,0,0,1,.2,1.684V10.92H414.5V7.8a5.109,5.109,0,0,0-.1-1.152.947.947,0,0,0-.374-.591,1.43,1.43,0,0,0-.8-.183,4.48,4.48,0,0,0-1.482.272l-.227.095V10.92h-1.243Z" transform="translate(-223.372 -2.656)" fill="#239384"/>
          <path id="Path_5034" data-name="Path 5034" d="M427.516,11.075h-1.082l-1.817-5.911h1.242l1.523,4.966h.4l1.537-4.966h1.242l-2.645,8.488h-1.229Z" transform="translate(-231.18 -2.811)" fill="#239384"/>
        </g>
      </g>
    </g>
  </g>
</svg>
