<svg xmlns="http://www.w3.org/2000/svg" width="54.5" height="48.414" viewBox="0 0 54.5 48.414">
  <g id="alert_4_" data-name="alert (4)" transform="translate(0 -0.499)">
    <path id="Path_1" data-name="Path 1" d="M385.685,209.671a1.065,1.065,0,1,1,.753-.312A1.072,1.072,0,0,1,385.685,209.671Zm0,0" transform="translate(-343.68 -185.005)" fill="red"/>
    <path id="Path_2" data-name="Path 2" d="M49.91,48.913H4.59A4.582,4.582,0,0,1,.621,42.039L23.282,2.79a4.582,4.582,0,0,1,7.937,0l9.4,16.275a1.064,1.064,0,1,1-1.844,1.064l-9.4-16.275a2.454,2.454,0,0,0-4.25,0L2.465,43.1A2.454,2.454,0,0,0,4.59,46.785H49.91A2.454,2.454,0,0,0,52.035,43.1L42.952,27.371A1.064,1.064,0,0,1,44.8,26.307l9.083,15.733a4.582,4.582,0,0,1-3.969,6.874Zm0,0" fill="red"/>
    <path id="Path_3" data-name="Path 3" d="M227.41,165.21A3.41,3.41,0,0,1,224,161.8V152.2a3.406,3.406,0,0,1,6.812,0V161.8A3.41,3.41,0,0,1,227.41,165.21Zm0-14.289a1.279,1.279,0,0,0-1.277,1.277V161.8a1.277,1.277,0,0,0,2.555,0V152.2A1.279,1.279,0,0,0,227.41,150.922Zm0,0" transform="translate(-200.16 -132.508)" fill="red"/>
    <path id="Path_4" data-name="Path 4" d="M227.41,333.839a3.406,3.406,0,1,1,2.408-1A3.409,3.409,0,0,1,227.41,333.839Zm0-4.683a1.277,1.277,0,1,0,1.277,1.277A1.279,1.279,0,0,0,227.41,329.156Zm0,0" transform="translate(-200.16 -291.771)" fill="red"/>
  </g>
</svg>
