<svg xmlns="http://www.w3.org/2000/svg" width="31.865" height="27.328" viewBox="0 0 31.865 27.328">
  <g id="arrow" transform="translate(0 -31.842)">
    <g id="Group_18" data-name="Group 18" transform="translate(0 31.842)">
      <path id="Path_48" data-name="Path 48"
        d="M29.95,43.269a2.278,2.278,0,0,0-.394-.029H7.075l.49-.228A4.56,4.56,0,0,0,8.853,42.1l6.3-6.3a2.36,2.36,0,0,0,.331-3.021,2.28,2.28,0,0,0-3.42-.3l-11.4,11.4a2.28,2.28,0,0,0,0,3.224l0,0,11.4,11.4a2.28,2.28,0,0,0,3.42-.228,2.36,2.36,0,0,0-.331-3.021L8.865,48.94a4.56,4.56,0,0,0-1.14-.832L7.041,47.8H29.43a2.36,2.36,0,0,0,2.405-1.915A2.28,2.28,0,0,0,29.95,43.269Z"
        transform="translate(0 -31.842)" />
    </g>
  </g>
</svg>
