<svg xmlns="http://www.w3.org/2000/svg" width="18.427" height="17.026" viewBox="0 0 18.427 17.026">
  <g id="bus_4_" data-name="bus (4)" transform="translate(0 0)">
    <g id="Group_1935" data-name="Group 1935">
      <path id="Path_4151" data-name="Path 4151" d="M17.18,23.814a1.239,1.239,0,0,0-.527.117V21.1a1.632,1.632,0,0,0-1.63-1.63H3.4a1.632,1.632,0,0,0-1.63,1.63v2.835A1.246,1.246,0,0,0,0,25.061v.5a1.248,1.248,0,0,0,1.247,1.247h.527V35.4a1.093,1.093,0,0,0,1.092,1.092H4.081A1.093,1.093,0,0,0,5.172,35.4v-.342h8.083V35.4a1.093,1.093,0,0,0,1.092,1.092h1.214A1.093,1.093,0,0,0,16.653,35.4V26.813h.527a1.248,1.248,0,0,0,1.247-1.247v-.5A1.248,1.248,0,0,0,17.18,23.814ZM3.4,20.186H15.023a.911.911,0,0,1,.91.91V22.17H11.614v-.032a1,1,0,0,0-.993-.993H7.829a1,1,0,0,0-.993.993v.032H2.494V21.1a.911.911,0,0,1,.91-.91Zm7.49,2.743a.274.274,0,0,1-.274.273H7.829a.274.274,0,0,1-.273-.273v-.792a.274.274,0,0,1,.274-.274h2.791a.274.274,0,0,1,.274.274ZM1.247,26.093a.528.528,0,0,1-.527-.527v-.5a.527.527,0,0,1,1.054,0v1.035ZM4.453,35.4a.372.372,0,0,1-.372.372H2.866a.372.372,0,0,1-.372-.372v-2l1.469,1.228a1.875,1.875,0,0,0,.49.294Zm.694-1.062a1.134,1.134,0,0,1-.722-.262L2.9,32.8a1.123,1.123,0,0,1-.4-.864V28.6H7.759a.36.36,0,1,0,0-.72H2.494V22.89H6.836v.04a1,1,0,0,0,.993.993h2.791a.995.995,0,0,0,.994-.993v-.04h4.318v4.986H10.925a.36.36,0,1,0,0,.72h5.008v3.328a1.138,1.138,0,0,1-.413.874l-1.571,1.286a1.135,1.135,0,0,1-.713.255ZM15.933,35.4a.372.372,0,0,1-.372.372H14.347a.372.372,0,0,1-.372-.372v-.5a1.865,1.865,0,0,0,.431-.263l1.527-1.25Zm1.774-9.834a.528.528,0,0,1-.527.527h-.527V25.059a.527.527,0,0,1,1.054,0Z" transform="translate(0 -19.466)" fill="#1298ad"/>
      <path id="Path_4152" data-name="Path 4152" d="M100.211,306.226a1.507,1.507,0,1,0,1.507,1.507A1.508,1.508,0,0,0,100.211,306.226Zm0,2.294a.787.787,0,1,1,.787-.787A.788.788,0,0,1,100.211,308.52Z" transform="translate(-95.152 -295.905)" fill="#1298ad"/>
      <path id="Path_4153" data-name="Path 4153" d="M331.451,307.733a1.507,1.507,0,1,0-1.507,1.507A1.508,1.508,0,0,0,331.451,307.733Zm-2.294,0a.787.787,0,1,1,.787.787A.788.788,0,0,1,329.157,307.733Z" transform="translate(-316.617 -295.905)" fill="#1298ad"/>
      <path id="Path_4154" data-name="Path 4154" d="M220.146,344.639H222a.36.36,0,0,0,0-.72h-1.851a.36.36,0,1,0,0,.72Z" transform="translate(-211.876 -332.242)" fill="#1298ad"/>
      <path id="Path_4155" data-name="Path 4155" d="M212.717,385.639h-2.571a.36.36,0,1,0,0,.72h2.571a.36.36,0,1,0,0-.72Z" transform="translate(-202.236 -372.46)" fill="#1298ad"/>
      <path id="Path_4156" data-name="Path 4156" d="M250.329,253.689a.36.36,0,1,0,.118-.426A.362.362,0,0,0,250.329,253.689Z" transform="translate(-241.293 -244.782)" fill="#1298ad"/>
    </g>
  </g>
</svg>
