<svg xmlns="http://www.w3.org/2000/svg" width="35.525" height="27.002" viewBox="0 0 35.525 27.002">
  <path id="chat_1_" data-name="chat (1)" d="M28.076,75.256V62.937A3.442,3.442,0,0,0,24.638,59.5H3.438A3.442,3.442,0,0,0,0,62.937V75.256a3.442,3.442,0,0,0,3.438,3.438H6.524l.066,3.1a1.147,1.147,0,0,0,1.836.891l5.3-3.995H24.638A3.442,3.442,0,0,0,28.076,75.256ZM13.34,76.4a1.146,1.146,0,0,0-.69.231L8.834,79.511l-.042-1.987A1.146,1.146,0,0,0,7.646,76.4H3.438a1.147,1.147,0,0,1-1.146-1.146V62.937a1.147,1.147,0,0,1,1.146-1.146h21.2a1.147,1.147,0,0,1,1.146,1.146V75.256A1.147,1.147,0,0,1,24.638,76.4H13.34Zm22.184-6.3v9.454a3.442,3.442,0,0,1-3.438,3.438H29l-.061,2.393A1.146,1.146,0,0,1,27.79,86.5c-.457,0-.2.079-5.934-3.51H16.616a1.146,1.146,0,0,1,0-2.292c6.078,0,5.794-.064,6.176.175l3.9,2.444.038-1.5A1.146,1.146,0,0,1,27.879,80.7h4.208a1.147,1.147,0,0,0,1.146-1.146V70.1a1.147,1.147,0,0,0-1.146-1.146,1.146,1.146,0,0,1,0-2.292A3.442,3.442,0,0,1,35.525,70.1ZM21.2,67.019a1.146,1.146,0,0,1-1.146,1.146H8.022a1.146,1.146,0,1,1,0-2.292H20.054A1.146,1.146,0,0,1,21.2,67.019Zm-2.077,5.014a1.146,1.146,0,0,1-1.146,1.146H10.1a1.146,1.146,0,0,1,0-2.292h7.879A1.146,1.146,0,0,1,19.123,72.033Z" transform="translate(0 -59.499)" fill="#303030"/>
</svg>
