<svg id="clock_7_" data-name="clock (7)" xmlns="http://www.w3.org/2000/svg" width="17.836" height="17.836" viewBox="0 0 17.836 17.836">
  <g id="Group_1937" data-name="Group 1937">
    <g id="Group_1936" data-name="Group 1936">
      <path id="Path_4157" data-name="Path 4157" d="M176.388,40.969a.389.389,0,0,0,.388-.388v-.194a.388.388,0,1,0-.775,0v.194A.389.389,0,0,0,176.388,40.969Z" transform="translate(-167.47 -38.061)" fill="#1298ad"/>
      <path id="Path_4158" data-name="Path 4158" d="M176.388,308a.389.389,0,0,0-.388.388v.194a.388.388,0,1,0,.775,0v-.194A.389.389,0,0,0,176.388,308Z" transform="translate(-167.47 -293.072)" fill="#1298ad"/>
      <path id="Path_4159" data-name="Path 4159" d="M40.582,176h-.194a.388.388,0,1,0,0,.775h.194a.388.388,0,1,0,0-.775Z" transform="translate(-38.061 -167.47)" fill="#1298ad"/>
      <path id="Path_4160" data-name="Path 4160" d="M308.582,176h-.194a.388.388,0,0,0,0,.775h.194a.388.388,0,1,0,0-.775Z" transform="translate(-293.072 -167.47)" fill="#1298ad"/>
      <path id="Path_4161" data-name="Path 4161" d="M80.659,80.116a.384.384,0,0,0-.543.543l.136.136a.375.375,0,0,0,.543,0,.375.375,0,0,0,0-.543Z" transform="translate(-76.123 -76.123)" fill="#1298ad"/>
      <path id="Path_4162" data-name="Path 4162" d="M80.252,269.316l-.136.136a.375.375,0,0,0,0,.543.375.375,0,0,0,.543,0l.136-.136a.384.384,0,0,0-.543-.543Z" transform="translate(-76.123 -256.152)" fill="#1298ad"/>
      <path id="Path_4163" data-name="Path 4163" d="M269.452,80.116l-.136.136a.375.375,0,0,0,0,.543.375.375,0,0,0,.543,0l.136-.136a.384.384,0,0,0-.543-.543Z" transform="translate(-256.152 -76.123)" fill="#1298ad"/>
      <path id="Path_4164" data-name="Path 4164" d="M176.775,103.916v-3.528a.388.388,0,1,0-.775,0v3.684a.383.383,0,0,0,.116.271l4.246,4.246a.375.375,0,0,0,.543,0,.375.375,0,0,0,0-.543Z" transform="translate(-167.47 -95.153)" fill="#1298ad"/>
      <path id="Path_4165" data-name="Path 4165" d="M8.918,0a8.918,8.918,0,1,0,8.918,8.918A8.919,8.919,0,0,0,8.918,0Zm0,17.061a8.143,8.143,0,1,1,8.143-8.143A8.142,8.142,0,0,1,8.918,17.061Z" fill="#1298ad"/>
    </g>
  </g>
</svg>
