<svg xmlns="http://www.w3.org/2000/svg" width="49.878" height="50.5" viewBox="0 0 49.878 50.5">
  <g id="complain" transform="translate(-3.151 0)">
    <g id="Group_3" data-name="Group 3" transform="translate(3.151 0)">
      <g id="Group_2" data-name="Group 2">
        <path id="Path_23" data-name="Path 23" d="M17.942,29.2a14.632,14.632,0,0,0,6.629-1.688.032.032,0,0,1,.028,0,9.474,9.474,0,0,0,4.8,1.052,1.2,1.2,0,0,0,.777-1.952,11.926,11.926,0,0,1-1.472-2.33.036.036,0,0,1,.01-.034A14.584,14.584,0,0,0,29.076,5.4a.74.74,0,1,0-1.148.934A13.1,13.1,0,0,1,27.6,23.264a1.509,1.509,0,0,0-.233,1.654,13.591,13.591,0,0,0,1.331,2.2,9.309,9.309,0,0,1-3.466-.952,1.518,1.518,0,0,0-1.353.032A13.012,13.012,0,0,1,8.632,23.958,13.089,13.089,0,0,1,25.561,4.065a.74.74,0,0,0,.883-1.187A14.565,14.565,0,0,0,7.6,25.018,14.49,14.49,0,0,0,17.755,29.2Z" transform="translate(-3.151 0)" fill="#1298ad"/>
        <path id="Path_24" data-name="Path 24" d="M197.343,124.02a2.615,2.615,0,1,0,2.615-2.615A2.618,2.618,0,0,0,197.343,124.02Zm3.75,0a1.135,1.135,0,1,1-1.135-1.135A1.136,1.136,0,0,1,201.093,124.02Z" transform="translate(-178.185 -109.428)" fill="#1298ad"/>
        <path id="Path_25" data-name="Path 25" d="M124.623,124.02a2.615,2.615,0,1,0,2.615-2.615A2.618,2.618,0,0,0,124.623,124.02Zm3.75,0a1.135,1.135,0,1,1-1.135-1.135A1.137,1.137,0,0,1,128.373,124.02Z" transform="translate(-112.639 -109.428)" fill="#1298ad"/>
        <path id="Path_26" data-name="Path 26" d="M51.9,124.02a2.615,2.615,0,1,0,2.615-2.615A2.618,2.618,0,0,0,51.9,124.02Zm3.75,0a1.135,1.135,0,1,1-1.135-1.135A1.136,1.136,0,0,1,55.654,124.02Z" transform="translate(-47.094 -109.428)" fill="#1298ad"/>
        <path id="Path_27" data-name="Path 27" d="M159.856,40.081a.741.741,0,0,0-.814.658,28.262,28.262,0,0,1-1.07,5.1,43.855,43.855,0,0,1-9.846,17.723,38.146,38.146,0,0,1-3.995,3.669q-.733.582-1.493,1.128-1.568,1.127-3.239,2.1a13.262,13.262,0,0,1-8.584,1.93q-.616-.111-1.187-.275c1.651-1.234,3.107-2.488,4.7-3.93,1.819-1.642,3.411-3.164,4.868-4.652l.006-.006.007-.007.859-.921a47.3,47.3,0,0,0,11.894-18.4l.465-1.327c1.342-3.883,2.576-8,3.672-12.265a10.859,10.859,0,0,1,2.184,3.362,11.027,11.027,0,0,1,.73,2.735.74.74,0,1,0,1.466-.2,12.505,12.505,0,0,0-.83-3.1q-.147-.351-.314-.694a13.27,13.27,0,0,0-4.282-4.883c-1.779-1.313-4.135-2.322-6.309-1.369a4.394,4.394,0,0,0-1.8,1.473,5.652,5.652,0,0,0-.742,1.408c-.043.118-1.5,4.733-2.049,7.01a3.722,3.722,0,0,0,1.109,4.084,6.243,6.243,0,0,0,1.246.808c1.047.531,2.14.981,3.232,1.421l.449.181.6.228-.224.639a45.826,45.826,0,0,1-11.538,17.837l-.029.029-.364.39-.773-.761a31.661,31.661,0,0,0-2.444-2.386c-1.979-1.556-3.653-1.592-5.6-.122a55.173,55.173,0,0,0-5.8,4.926c-2.186,2.2-2.157,4.5.087,6.856a11.017,11.017,0,0,0,2.642,2.039l0,0a11.239,11.239,0,0,0,1.015.5l.044.016a12.768,12.768,0,0,0,2.744.811,10.44,10.44,0,0,0,1.858.161,15.717,15.717,0,0,0,7.734-2.268q1.743-1.015,3.384-2.194.825-.593,1.619-1.228a40.656,40.656,0,0,0,9.072-10.325q.756-1.221,1.427-2.491a51.3,51.3,0,0,0,3.745-9.234,29.736,29.736,0,0,0,1.125-5.372.74.74,0,0,0-.658-.813Zm-9.115,1.381c-.962-.375-1.9-.757-2.83-1.191a7.219,7.219,0,0,1-1.684-.966,2.3,2.3,0,0,1-.631-2.612c.518-2.152,1.92-6.607,2-6.853a4.182,4.182,0,0,1,.546-1.039,2.939,2.939,0,0,1,1.2-.991c1.907-.836,4.035.542,5.5,1.662l.022.017c-1.067,4.226-2.27,8.317-3.582,12.18C151.1,41.6,150.92,41.532,150.74,41.462ZM127.421,71.2V71.2a9.547,9.547,0,0,1-2.24-1.746c-1.7-1.777-1.727-3.164-.109-4.79a52.957,52.957,0,0,1,5.644-4.789c1.395-1.054,2.352-1.028,3.792.1.742.583,3.107,3.051,3.107,3.051-1.291,1.3-2.7,2.629-4.274,4.054a59.251,59.251,0,0,1-5.364,4.4C127.787,71.4,127.6,71.3,127.421,71.2Z" transform="translate(-110.64 -23.506)" fill="#1298ad"/>
      </g>
    </g>
  </g>
</svg>
