<svg id="discount_2_" data-name="discount (2)" xmlns="http://www.w3.org/2000/svg" width="78" height="78" viewBox="0 0 78 78">
  <g id="Group_21" data-name="Group 21" transform="translate(0 0)">
    <path id="Path_68" data-name="Path 68" d="M211.262,183.737a1.143,1.143,0,0,0,1.5-.611L224.7,154.663a1.143,1.143,0,0,0-2.107-.884l-11.945,28.462A1.143,1.143,0,0,0,211.262,183.737Z" transform="translate(-178.484 -129.757)" fill="#1298ad"/>
    <path id="Path_69" data-name="Path 69" d="M173.749,151.647c0-4.012-2.88-7.276-6.421-7.276s-6.421,3.264-6.421,7.276,2.88,7.276,6.421,7.276S173.749,155.659,173.749,151.647Zm-6.421,4.991c-2.28,0-4.135-2.239-4.135-4.991s1.855-4.991,4.135-4.991,4.135,2.239,4.135,4.991S169.609,156.638,167.329,156.638Z" transform="translate(-136.395 -122.377)" fill="#1298ad"/>
    <path id="Path_70" data-name="Path 70" d="M273.223,286.662c3.54,0,6.421-3.264,6.421-7.276s-2.88-7.276-6.421-7.276-6.421,3.264-6.421,7.276S269.682,286.662,273.223,286.662Zm0-12.266c2.28,0,4.135,2.239,4.135,4.991s-1.855,4.991-4.135,4.991-4.135-2.239-4.135-4.991S270.942,274.4,273.223,274.4Z" transform="translate(-226.156 -230.656)" fill="#1298ad"/>
    <path id="Path_71" data-name="Path 71" d="M74.669,32.9a4.945,4.945,0,0,1-1.729-6.453,7.25,7.25,0,0,0-6.1-10.565,4.945,4.945,0,0,1-4.724-4.724,7.25,7.25,0,0,0-10.565-6.1A4.946,4.946,0,0,1,45.1,3.331a7.251,7.251,0,0,0-12.2,0A4.946,4.946,0,0,1,26.448,5.06a7.25,7.25,0,0,0-10.565,6.1,4.945,4.945,0,0,1-4.724,4.724,7.25,7.25,0,0,0-6.1,10.565A4.945,4.945,0,0,1,3.331,32.9a7.251,7.251,0,0,0,0,12.2A4.945,4.945,0,0,1,5.06,51.552a7.25,7.25,0,0,0,6.1,10.565,4.945,4.945,0,0,1,4.724,4.724,7.25,7.25,0,0,0,10.565,6.1A4.946,4.946,0,0,1,32.9,74.669a7.251,7.251,0,0,0,12.2,0,4.946,4.946,0,0,1,6.453-1.729,7.25,7.25,0,0,0,10.565-6.1,4.945,4.945,0,0,1,4.724-4.724,7.25,7.25,0,0,0,6.1-10.565A4.945,4.945,0,0,1,74.669,45.1a7.251,7.251,0,0,0,0-12.2ZM73.434,43.177A7.222,7.222,0,0,0,70.909,52.6a4.965,4.965,0,0,1-4.177,7.235,7.221,7.221,0,0,0-6.9,6.9A4.965,4.965,0,0,1,52.6,70.909a7.221,7.221,0,0,0-9.422,2.525,4.965,4.965,0,0,1-8.354,0A7.223,7.223,0,0,0,25.4,70.909a4.965,4.965,0,0,1-7.235-4.177,7.221,7.221,0,0,0-6.9-6.9A4.965,4.965,0,0,1,7.091,52.6a7.221,7.221,0,0,0-2.525-9.422,4.965,4.965,0,0,1,0-8.355A7.222,7.222,0,0,0,7.091,25.4a4.965,4.965,0,0,1,4.177-7.235,7.221,7.221,0,0,0,6.9-6.9A4.965,4.965,0,0,1,25.4,7.091a7.222,7.222,0,0,0,9.422-2.525,4.965,4.965,0,0,1,8.354,0A7.222,7.222,0,0,0,52.6,7.091a4.965,4.965,0,0,1,7.235,4.177,7.221,7.221,0,0,0,6.9,6.9A4.965,4.965,0,0,1,70.909,25.4a7.221,7.221,0,0,0,2.525,9.422,4.965,4.965,0,0,1,0,8.354Z" transform="translate(0 0)" fill="#1298ad"/>
    <path id="Path_72" data-name="Path 72" d="M117.97,82.172a1.143,1.143,0,0,0,1.455-1.763,27.715,27.715,0,0,0-39.01,39.02,1.143,1.143,0,0,0,1.762-1.455,25.43,25.43,0,0,1,35.793-35.8Z" transform="translate(-62.795 -62.795)" fill="#1298ad"/>
    <path id="Path_73" data-name="Path 73" d="M176.854,139.483a1.143,1.143,0,0,0-.174,1.606,25.148,25.148,0,0,1,5.607,15.93,25.43,25.43,0,0,1-41.387,19.8,1.143,1.143,0,0,0-1.435,1.778,27.715,27.715,0,0,0,39-38.941A1.143,1.143,0,0,0,176.854,139.483Z" transform="translate(-117.858 -118.02)" fill="#1298ad"/>
  </g>
</svg>
