<svg xmlns="http://www.w3.org/2000/svg" width="66.963" height="97.6" viewBox="0 0 66.963 97.6">
  <g id="Exams-rafiki_1_" data-name="Exams-rafiki (1)" transform="translate(-346.548 941.981)">
    <g id="freepik--exams-sheet--inject-9" transform="translate(346.548 -941.981)">
      <path id="Path_2675" data-name="Path 2675" d="M278.821,214.228h-54.9a2.332,2.332,0,0,1-2.357-2.561l6.922-88.8a2.815,2.815,0,0,1,2.758-2.561h54.9a2.336,2.336,0,0,1,2.361,2.561l-6.922,88.8A2.819,2.819,0,0,1,278.821,214.228Z" transform="translate(-221.548 -116.628)" fill="#2e353a"/>
      <path id="Path_2676" data-name="Path 2676" d="M278.821,214.228h-54.9a2.332,2.332,0,0,1-2.357-2.561l6.922-88.8a2.815,2.815,0,0,1,2.758-2.561h54.9a2.336,2.336,0,0,1,2.361,2.561l-6.922,88.8A2.819,2.819,0,0,1,278.821,214.228Z" transform="translate(-221.548 -116.628)" fill="#fff" opacity="0.2"/>
      <path id="Path_2677" data-name="Path 2677" d="M312.171,124H285.879a.816.816,0,0,1-.826-.894l.4-5.19a.987.987,0,0,1,.966-.9h26.291a.816.816,0,0,1,.823.9l-.4,5.176a.984.984,0,0,1-.962.909Z" transform="translate(-262.335 -114.516)" fill="#1298ad"/>
      <path id="Path_2678" data-name="Path 2678" d="M312.171,124H285.879a.816.816,0,0,1-.826-.894l.4-5.19a.987.987,0,0,1,.966-.9h26.291a.816.816,0,0,1,.823.9l-.4,5.176a.984.984,0,0,1-.962.909Z" transform="translate(-262.335 -114.516)" opacity="0.2"/>
      <path id="Path_2679" data-name="Path 2679" d="M323.614,114.137H319.5l.161-2.06a2.261,2.261,0,0,1,2.214-2.057h0a1.878,1.878,0,0,1,1.9,2.057Z" transform="translate(-284.462 -110.019)" fill="#1298ad"/>
      <path id="Path_2680" data-name="Path 2680" d="M323.614,114.137H319.5l.161-2.06a2.261,2.261,0,0,1,2.214-2.057h0a1.878,1.878,0,0,1,1.9,2.057Z" transform="translate(-284.462 -110.019)" fill="#fff" opacity="0.4"/>
      <path id="Path_2681" data-name="Path 2681" d="M284.7,217.174H231.85l6.746-86.5H291.44Z" transform="translate(-228.165 -123.283)" fill="#fff"/>
      <path id="Path_2682" data-name="Path 2682" d="M313.38,130.818H296.5a1.924,1.924,0,0,1-1.942-2.11l.215-2.747a2.322,2.322,0,0,1,2.271-2.11h16.887a1.928,1.928,0,0,1,1.946,2.11l-.215,2.747A2.329,2.329,0,0,1,313.38,130.818Zm-16.4-6.249a1.531,1.531,0,0,0-1.5,1.391l-.215,2.747a1.27,1.27,0,0,0,1.281,1.4h16.891a1.535,1.535,0,0,0,1.5-1.4l.215-2.747a1.273,1.273,0,0,0-1.284-1.391Z" transform="translate(-268.434 -118.902)" fill="#1298ad"/>
      <g id="Group_1669" data-name="Group 1669" transform="translate(26.111 4.947)" opacity="0.4">
        <path id="Path_2683" data-name="Path 2683" d="M313.38,130.818H296.5a1.924,1.924,0,0,1-1.942-2.11l.215-2.747a2.322,2.322,0,0,1,2.271-2.11h16.887a1.928,1.928,0,0,1,1.946,2.11l-.215,2.747A2.329,2.329,0,0,1,313.38,130.818Zm-16.4-6.249a1.531,1.531,0,0,0-1.5,1.391l-.215,2.747a1.27,1.27,0,0,0,1.281,1.4h16.891a1.535,1.535,0,0,0,1.5-1.4l.215-2.747a1.273,1.273,0,0,0-1.284-1.391Z" transform="translate(-294.545 -123.849)" fill="#fff"/>
      </g>
      <path id="Path_2684" data-name="Path 2684" d="M318.249,123.951H303.941a.447.447,0,0,1-.454-.49l.111-1.431a.544.544,0,0,1,.533-.49h14.308a.443.443,0,0,1,.451.49l-.111,1.431A.54.54,0,0,1,318.249,123.951Z" transform="translate(-274.176 -117.419)" fill="#1298ad"/>
      <path id="Path_2685" data-name="Path 2685" d="M306.693,158.151H266.63l.34-4.371h40.063Z" transform="translate(-250.504 -138.127)" fill="#1298ad"/>
      <path id="Path_2686" data-name="Path 2686" d="M285.41,180.987H258.74l.089-1.127H285.5Z" transform="translate(-245.436 -154.878)" fill="#1298ad"/>
      <path id="Path_2687" data-name="Path 2687" d="M284.71,190.08H258.04l.086-1.13H284.8Z" transform="translate(-244.987 -160.716)" fill="#1298ad"/>
      <path id="Path_2688" data-name="Path 2688" d="M284,199.18H257.33l.086-1.13h26.67Z" transform="translate(-244.531 -166.561)" fill="#1298ad"/>
      <path id="Path_2689" data-name="Path 2689" d="M283.29,208.277H256.62l.086-1.127h26.67Z" transform="translate(-244.075 -172.406)" fill="#1298ad"/>
      <path id="Path_2690" data-name="Path 2690" d="M360.561,190.749H349.68l.851-10.889h10.881Z" transform="translate(-303.847 -154.878)" fill="#1298ad"/>
      <path id="Path_2691" data-name="Path 2691" d="M364.73,187.7c.05-.637-.444-1.073-1.338-1.073a2.3,2.3,0,0,0-1.846.787l-.687-.519a3.366,3.366,0,0,1,2.665-1.116c1.431,0,2.311.669,2.221,1.788-.129,1.663-1.9,1.789-2,3.08h-1C362.874,189.078,364.641,188.849,364.73,187.7Zm-2.246,4.554a.687.687,0,0,1,.715-.637.569.569,0,0,1,.587.637.69.69,0,0,1-.687.637.576.576,0,0,1-.615-.637Z" transform="translate(-311.028 -158.68)" fill="#fff"/>
      <path id="Path_2692" data-name="Path 2692" d="M281.82,227.05H255.15l.089-1.13h26.67Z" transform="translate(-243.131 -184.462)" fill="#1298ad"/>
      <path id="Path_2693" data-name="Path 2693" d="M281.11,236.147H254.44l.089-1.127H281.2Z" transform="translate(-242.675 -190.307)" fill="#1298ad"/>
      <path id="Path_2694" data-name="Path 2694" d="M280.41,245.247H253.74l.086-1.127H280.5Z" transform="translate(-242.225 -196.152)" fill="#1298ad"/>
      <path id="Path_2695" data-name="Path 2695" d="M279.7,254.34H253.03l.086-1.13h26.67Z" transform="translate(-241.769 -201.99)" fill="#1298ad"/>
      <path id="Path_2696" data-name="Path 2696" d="M356.971,236.812H346.09l.848-10.892h10.881Z" transform="translate(-301.541 -184.462)" fill="#1298ad"/>
      <path id="Path_2697" data-name="Path 2697" d="M361.14,233.787c.05-.64-.444-1.073-1.338-1.073a2.3,2.3,0,0,0-1.846.787l-.687-.512a3.355,3.355,0,0,1,2.665-1.116c1.431,0,2.311.669,2.221,1.789-.129,1.663-1.9,1.789-2,3.08h-1C359.28,235.135,361.051,234.931,361.14,233.787Zm-2.246,4.568a.687.687,0,0,1,.7-.64.569.569,0,0,1,.587.64.694.694,0,0,1-.687.637.576.576,0,0,1-.6-.637Z" transform="translate(-308.722 -188.283)" fill="#fff"/>
      <path id="Path_2698" data-name="Path 2698" d="M278.23,273.117H251.56l.089-1.127h26.67Z" transform="translate(-240.825 -214.052)" fill="#1298ad"/>
      <path id="Path_2699" data-name="Path 2699" d="M277.52,282.21H250.85l.089-1.13h26.67Z" transform="translate(-240.369 -219.891)" fill="#1298ad"/>
      <path id="Path_2700" data-name="Path 2700" d="M276.817,291.31H250.15l.086-1.13h26.67Z" transform="translate(-239.919 -225.736)" fill="#1298ad"/>
      <path id="Path_2701" data-name="Path 2701" d="M276.11,300.407H249.44l.086-1.127H276.2Z" transform="translate(-239.463 -231.581)" fill="#1298ad"/>
      <path id="Path_2702" data-name="Path 2702" d="M353.381,282.878H342.5l.848-10.888h10.881Z" transform="translate(-299.235 -214.052)" fill="#1298ad"/>
      <path id="Path_2703" data-name="Path 2703" d="M357.55,279.808c.05-.637-.444-1.073-1.341-1.073a2.3,2.3,0,0,0-1.842.787l-.687-.533a3.355,3.355,0,0,1,2.665-1.116c1.431,0,2.307.665,2.221,1.771-.129,1.667-1.9,1.789-2,3.08h-.984C355.69,281.175,357.461,280.953,357.55,279.808Zm-2.246,4.546a.687.687,0,0,1,.7-.637.569.569,0,0,1,.587.637.69.69,0,0,1-.687.637.572.572,0,0,1-.6-.637Z" transform="translate(-306.416 -217.829)" fill="#fff"/>
      <path id="Path_2704" data-name="Path 2704" d="M274.64,319.18H247.97l.089-1.13h26.67Z" transform="translate(-238.519 -243.637)" fill="#1298ad"/>
      <path id="Path_2705" data-name="Path 2705" d="M273.93,328.28H247.26l.089-1.13h26.67Z" transform="translate(-238.063 -249.482)" fill="#1298ad"/>
      <path id="Path_2706" data-name="Path 2706" d="M273.22,337.377H246.55l.089-1.127h26.67Z" transform="translate(-237.607 -255.326)" fill="#1298ad"/>
      <path id="Path_2707" data-name="Path 2707" d="M272.51,346.47H245.84l.089-1.13H272.6Z" transform="translate(-237.151 -261.165)" fill="#1298ad"/>
      <path id="Path_2708" data-name="Path 2708" d="M349.791,328.942H338.91l.848-10.892h10.881Z" transform="translate(-296.929 -243.637)" fill="#1298ad"/>
      <path id="Path_2709" data-name="Path 2709" d="M353.96,325.9c.05-.64-.444-1.073-1.341-1.073a2.3,2.3,0,0,0-1.842.787l-.687-.519a3.355,3.355,0,0,1,2.665-1.116c1.431,0,2.307.669,2.221,1.789-.129,1.663-1.9,1.789-2,3.08h-1C352.1,327.267,353.871,327.048,353.96,325.9Zm-2.246,4.554a.687.687,0,0,1,.7-.64.569.569,0,0,1,.587.64.694.694,0,0,1-.687.637.576.576,0,0,1-.6-.637Z" transform="translate(-304.11 -247.445)" fill="#fff"/>
      <path id="Path_2710" data-name="Path 2710" d="M306.693,158.151H266.63l.34-4.371h40.063Z" transform="translate(-250.504 -138.127)" fill="#fff" opacity="0.7"/>
      <path id="Path_2711" data-name="Path 2711" d="M285.41,180.987H258.74l.089-1.127H285.5Z" transform="translate(-245.436 -154.878)" fill="#fff" opacity="0.7"/>
      <path id="Path_2712" data-name="Path 2712" d="M284.71,190.08H258.04l.086-1.13H284.8Z" transform="translate(-244.987 -160.716)" fill="#fff" opacity="0.7"/>
      <path id="Path_2713" data-name="Path 2713" d="M284,199.18H257.33l.086-1.13h26.67Z" transform="translate(-244.531 -166.561)" fill="#fff" opacity="0.7"/>
      <path id="Path_2714" data-name="Path 2714" d="M283.29,208.277H256.62l.086-1.127h26.67Z" transform="translate(-244.075 -172.406)" fill="#fff" opacity="0.7"/>
      <path id="Path_2715" data-name="Path 2715" d="M360.561,190.749H349.68l.851-10.889h10.881Z" transform="translate(-303.847 -154.878)" fill="#fff" opacity="0.7"/>
      <path id="Path_2716" data-name="Path 2716" d="M281.82,227.05H255.15l.089-1.13h26.67Z" transform="translate(-243.131 -184.462)" fill="#fff" opacity="0.7"/>
      <path id="Path_2717" data-name="Path 2717" d="M281.11,236.147H254.44l.089-1.127H281.2Z" transform="translate(-242.675 -190.307)" fill="#fff" opacity="0.7"/>
      <path id="Path_2718" data-name="Path 2718" d="M280.41,245.247H253.74l.086-1.127H280.5Z" transform="translate(-242.225 -196.152)" fill="#fff" opacity="0.7"/>
      <path id="Path_2719" data-name="Path 2719" d="M279.7,254.34H253.03l.086-1.13h26.67Z" transform="translate(-241.769 -201.99)" fill="#fff" opacity="0.7"/>
      <path id="Path_2720" data-name="Path 2720" d="M356.971,236.812H346.09l.848-10.892h10.881Z" transform="translate(-301.541 -184.462)" fill="#fff" opacity="0.7"/>
      <path id="Path_2721" data-name="Path 2721" d="M278.23,273.117H251.56l.089-1.127h26.67Z" transform="translate(-240.825 -214.052)" fill="#fff" opacity="0.7"/>
      <path id="Path_2722" data-name="Path 2722" d="M277.52,282.21H250.85l.089-1.13h26.67Z" transform="translate(-240.369 -219.891)" fill="#fff" opacity="0.7"/>
      <path id="Path_2723" data-name="Path 2723" d="M276.817,291.31H250.15l.086-1.13h26.67Z" transform="translate(-239.919 -225.736)" fill="#fff" opacity="0.7"/>
      <path id="Path_2724" data-name="Path 2724" d="M276.11,300.407H249.44l.086-1.127H276.2Z" transform="translate(-239.463 -231.581)" fill="#fff" opacity="0.7"/>
      <path id="Path_2725" data-name="Path 2725" d="M353.381,282.878H342.5l.848-10.888h10.881Z" transform="translate(-299.235 -214.052)" fill="#fff" opacity="0.7"/>
      <path id="Path_2726" data-name="Path 2726" d="M274.64,319.18H247.97l.089-1.13h26.67Z" transform="translate(-238.519 -243.637)" fill="#fff" opacity="0.7"/>
      <path id="Path_2727" data-name="Path 2727" d="M273.93,328.28H247.26l.089-1.13h26.67Z" transform="translate(-238.063 -249.482)" fill="#fff" opacity="0.7"/>
      <path id="Path_2728" data-name="Path 2728" d="M273.22,337.377H246.55l.089-1.127h26.67Z" transform="translate(-237.607 -255.326)" fill="#fff" opacity="0.7"/>
      <path id="Path_2729" data-name="Path 2729" d="M272.51,346.47H245.84l.089-1.13H272.6Z" transform="translate(-237.151 -261.165)" fill="#fff" opacity="0.7"/>
      <path id="Path_2730" data-name="Path 2730" d="M349.791,328.942H338.91l.848-10.892h10.881Z" transform="translate(-296.929 -243.637)" fill="#fff" opacity="0.7"/>
    </g>
  </g>
</svg>
