<svg xmlns="http://www.w3.org/2000/svg" width="27.5" height="18.75" viewBox="0 0 27.5 18.75">
  <path id="Path_4126" data-name="Path 4126" d="M14.75,6.5a12.213,12.213,0,0,1,11.025,6.875,12.278,12.278,0,0,1-22.05,0A12.213,12.213,0,0,1,14.75,6.5m0-2.5A14.784,14.784,0,0,0,1,13.375a14.771,14.771,0,0,0,27.5,0A14.784,14.784,0,0,0,14.75,4Zm0,6.25a3.125,3.125,0,1,1-3.125,3.125A3.126,3.126,0,0,1,14.75,10.25m0-2.5a5.625,5.625,0,1,0,5.625,5.625A5.633,5.633,0,0,0,14.75,7.75Z" transform="translate(-1 -4)" fill="#ececec"/>
</svg>
