<svg xmlns="http://www.w3.org/2000/svg" width="16.136" height="21.512" viewBox="0 0 16.136 21.512">
  <g id="file_1_" data-name="file (1)" transform="translate(-63.991 0)">
    <path id="Path_2453" data-name="Path 2453" d="M139.409,208.119H129.327a.336.336,0,1,0,0,.672h10.081a.336.336,0,0,0,0-.672Z" transform="translate(-62.27 -199.377)"/>
    <path id="Path_2454" data-name="Path 2454" d="M139.409,144.119H129.327a.336.336,0,1,0,0,.672h10.081a.336.336,0,0,0,0-.672Z" transform="translate(-62.27 -138.065)"/>
    <path id="Path_2455" data-name="Path 2455" d="M139.409,272.119H129.327a.336.336,0,0,0,0,.672h10.081a.336.336,0,0,0,0-.672Z" transform="translate(-62.27 -260.688)"/>
    <path id="Path_2456" data-name="Path 2456" d="M139.409,336.119H129.327a.336.336,0,1,0,0,.672h10.081a.336.336,0,1,0,0-.672Z" transform="translate(-62.27 -322)"/>
    <path id="Path_2457" data-name="Path 2457" d="M136.72,400.119h-7.393a.336.336,0,0,0,0,.672h7.393a.336.336,0,0,0,0-.672Z" transform="translate(-62.27 -383.311)"/>
    <path id="Path_2458" data-name="Path 2458" d="M80.06,4.18C80.033,4.142,75.987.1,75.948.068c-.132-.094.47-.063-10.276-.063a1.682,1.682,0,0,0-1.68,1.68V19.832a1.682,1.682,0,0,0,1.68,1.68h12.77a1.682,1.682,0,0,0,1.68-1.68c0-16.533.034-15.517-.062-15.652Zm-1.086-.143H76.089V1.152Zm-.533,16.8H65.671a1.009,1.009,0,0,1-1.008-1.008V1.685A1.009,1.009,0,0,1,65.671.677h9.745v3.7a.336.336,0,0,0,.336.336h3.7V19.832A1.009,1.009,0,0,1,78.441,20.84Z"/>
  </g>
</svg>
