<svg id="information_5_" data-name="information (5)" xmlns="http://www.w3.org/2000/svg" width="18" height="18"
  viewBox="0 0 18 18">
  <g id="Group_737" data-name="Group 737">
    <g id="Group_736" data-name="Group 736">
      <path id="Path_2735" data-name="Path 2735"
        d="M9,0a9,9,0,1,0,9,9A8.995,8.995,0,0,0,9,0ZM9,16.594A7.594,7.594,0,1,1,16.594,9,7.589,7.589,0,0,1,9,16.594Z" />
    </g>
  </g>
  <g id="Group_739" data-name="Group 739" transform="translate(8.297 7.535)">
    <g id="Group_738" data-name="Group 738">
      <path id="Path_2736" data-name="Path 2736"
        d="M236.7,214.33a.7.7,0,0,0-.7.7v4.528a.7.7,0,1,0,1.406,0v-4.528A.7.7,0,0,0,236.7,214.33Z"
        transform="translate(-236 -214.33)" />
    </g>
  </g>
  <g id="Group_741" data-name="Group 741" transform="translate(8.051 4.776)">
    <g id="Group_740" data-name="Group 740">
      <circle id="Ellipse_84" data-name="Ellipse 84" cx="0.949" cy="0.949" r="0.949" />
    </g>
  </g>
</svg>
