<?xml version="1.0"?>
<svg xmlns="http://www.w3.org/2000/svg" xmlns:xlink="http://www.w3.org/1999/xlink" xmlns:svgjs="http://svgjs.com/svgjs" version="1.1" width="512" height="512" x="0" y="0" viewBox="0 0 512 512" style="enable-background:new 0 0 512 512" xml:space="preserve" class=""><g><path xmlns="http://www.w3.org/2000/svg" d="m256 0c-141.386719 0-256 114.613281-256 256s114.613281 256 256 256 256-114.613281 256-256-114.613281-256-256-256zm0 0" fill="#1298ad" data-original="#395f80" class=""/><path xmlns="http://www.w3.org/2000/svg" d="m256 0c-8.820312 0-17.535156.445312-26.125 1.316406 129.113281 13.089844 229.875 122.117188 229.875 254.683594s-100.761719 241.59375-229.875 254.683594c8.589844.871094 17.304688 1.316406 26.125 1.316406 141.386719 0 256-114.613281 256-256s-114.613281-256-256-256zm0 0" fill="#01788a" data-original="#1d4859" class=""/><path xmlns="http://www.w3.org/2000/svg" d="m256 462.550781c-114.074219 0-206.550781-92.476562-206.550781-206.550781s92.476562-206.550781 206.550781-206.550781 206.550781 92.476562 206.550781 206.550781-92.476562 206.550781-206.550781 206.550781zm0 0" fill="#ffffff" data-original="#e1effb" class=""/><path xmlns="http://www.w3.org/2000/svg" d="m256 49.449219c-8.78125 0-17.433594.550781-25.925781 1.617187 101.835937 12.75 180.625 99.640625 180.625 204.933594s-78.789063 192.183594-180.625 204.933594c8.492187 1.066406 17.144531 1.617187 25.925781 1.617187 114.074219 0 206.550781-92.476562 206.550781-206.550781s-92.476562-206.550781-206.550781-206.550781zm0 0" fill="#baced8" data-original="#baced8" class=""/><path xmlns="http://www.w3.org/2000/svg" d="m283.726562 141.746094c0 12.980468-12.191406 24.777344-27.53125 24.777344-15.730468 0-27.925781-11.800782-27.925781-24.777344 0-13.371094 12.195313-24.777344 27.925781-24.777344 15.339844 0 27.53125 11.40625 27.53125 24.777344zm-1.964843 82.199218v154.960938c0 7.867188-11.40625 16.125-25.566407 16.125-14.550781 0-25.171874-8.261719-25.171874-16.125v-154.960938c0-9.4375 10.621093-15.730468 25.171874-15.730468 14.160157 0 25.566407 6.292968 25.566407 15.730468zm0 0" fill="#1298ad" data-original="#f9644b" class=""/></g></svg>
