<svg xmlns="http://www.w3.org/2000/svg" width="20.07" height="20.07" viewBox="0 0 20.07 20.07">
  <path id="information_2_" data-name="information (2)" d="M10.035,0A10.035,10.035,0,1,0,20.07,10.035,10.046,10.046,0,0,0,10.035,0Zm.653,15.989c-.477.079-1.425.278-1.907.318a1.174,1.174,0,0,1-1.027-.535A1.254,1.254,0,0,1,7.6,14.624L9.5,9.408H7.526A2.358,2.358,0,0,1,9.382,7.215,7.262,7.262,0,0,1,11.289,6.9a1.513,1.513,0,0,1,1.027.535,1.254,1.254,0,0,1,.152,1.148l-1.9,5.216h1.972a2.22,2.22,0,0,1-1.855,2.191Zm.6-9.717a1.254,1.254,0,1,1,1.254-1.254,1.254,1.254,0,0,1-1.254,1.254Z" fill="#fff"/>
</svg>
