<svg id="maid_10_" data-name="maid (10)" xmlns="http://www.w3.org/2000/svg" width="13.279" height="18.277" viewBox="0 0 13.279 18.277">
  <path id="Path_4166" data-name="Path 4166" d="M215,277.953a.268.268,0,0,0-.377-.033,1.729,1.729,0,0,1-2.266,0,.268.268,0,0,0-.347.408,2.257,2.257,0,0,0,2.957,0A.268.268,0,0,0,215,277.953Z" transform="translate(-206.852 -267.939)" fill="#1298ad"/>
  <path id="Path_4167" data-name="Path 4167" d="M308.268,222.571a.268.268,0,0,0,.268-.268v-.535a.268.268,0,0,0-.535,0v.535A.268.268,0,0,0,308.268,222.571Z" transform="translate(-299.504 -213.593)" fill="#1298ad"/>
  <path id="Path_4168" data-name="Path 4168" d="M189.268,221.5a.268.268,0,0,0-.268.268v.535a.268.268,0,0,0,.535,0v-.535A.268.268,0,0,0,189.268,221.5Z" transform="translate(-184.752 -213.593)" fill="#1298ad"/>
  <path id="Path_4169" data-name="Path 4169" d="M81.048,13.873a3.134,3.134,0,0,0,1.125-2.4V9.3a1.355,1.355,0,0,0,0-2.26V6.318A5.509,5.509,0,0,0,80.15,2.042c0-.017,0-.035,0-.052s0-.041,0-.062A1.214,1.214,0,0,0,78.541.782a1.213,1.213,0,0,0-1.9-.508,1.213,1.213,0,0,0-1.9.508,1.214,1.214,0,0,0-1.614,1.146c0,.021,0,.042,0,.062s0,.035,0,.052a5.5,5.5,0,0,0-2.023,4.277v.726a1.355,1.355,0,0,0,0,2.26s0,.008,0,.012v.9a.268.268,0,1,0,.535,0V9.514a1.358,1.358,0,0,0,.214.017h.426a4.479,4.479,0,0,0,2.536,3.11v1.1h-1.7a.338.338,0,0,1-.184-.026,2.6,2.6,0,0,1-1.3-2.247.268.268,0,1,0-.535,0,3.142,3.142,0,0,0,1.125,2.4A3.129,3.129,0,0,0,70,16.867V17.3a.983.983,0,0,0,.982.982h7.211a.268.268,0,1,0,0-.535H72.5V14.356a2.583,2.583,0,0,1,.625-.077h.446V16.4a.268.268,0,0,0,.268.268h5.6a.268.268,0,0,0,.268-.268V14.279h.446a2.585,2.585,0,0,1,.625.077v3.386H79.442a.268.268,0,1,0,0,.535H82.3a.983.983,0,0,0,.982-.982v-.428a3.129,3.129,0,0,0-2.231-2.994Zm-9.084,3.868h-.982a.447.447,0,0,1-.446-.446v-.428a2.59,2.59,0,0,1,1.428-2.312ZM81.423,9h-.342c.013-.141.021-.284.021-.428V8.442h.339a.268.268,0,0,0,0-.535H81.1V7.354h.321a.821.821,0,0,1,0,1.642ZM74.337,1.249a.671.671,0,0,1,.275.058.447.447,0,0,0,.37,0,.441.441,0,0,0,.238-.278A.678.678,0,0,1,76.336.719a.444.444,0,0,0,.607,0,.678.678,0,0,1,1.116.307A.442.442,0,0,0,78.3,1.3a.447.447,0,0,0,.37,0,.672.672,0,0,1,.275-.058.679.679,0,0,1,.678.678q0,.018,0,.035a.552.552,0,0,1-.3.466.6.6,0,0,1-.592-.011,3.855,3.855,0,0,0-4.178,0,.6.6,0,0,1-.592.011.552.552,0,0,1-.3-.466c0-.012,0-.023,0-.035A.679.679,0,0,1,74.337,1.249Zm-2.7,5.069A4.97,4.97,0,0,1,73.33,2.574a1.11,1.11,0,0,0,.375.327,1.13,1.13,0,0,0,1.118-.022,3.313,3.313,0,0,1,3.632,0,1.13,1.13,0,0,0,1.118.022,1.111,1.111,0,0,0,.375-.327,4.974,4.974,0,0,1,1.688,3.744v.517a1.358,1.358,0,0,0-.214-.017H80.3a.268.268,0,0,1-.268-.268V6.176a.447.447,0,0,0-.446-.446H77.728a.8.8,0,0,1-.8-.8.268.268,0,0,0-.535,0,.8.8,0,0,1-.8.8H73.695a.447.447,0,0,0-.446.446V6.55a.268.268,0,0,1-.268.268H71.856a1.362,1.362,0,0,0-.214.017ZM71.856,9a.821.821,0,1,1,0-1.642h.321v.553h-.339a.268.268,0,1,0,0,.535h.339v.125c0,.145.007.287.021.428Zm.857-.428V7.354h.268a.8.8,0,0,0,.8-.8V6.265h1.8a1.337,1.337,0,0,0,1.071-.536,1.337,1.337,0,0,0,1.071.536H79.5V6.55a.8.8,0,0,0,.8.8h.268V8.567a3.927,3.927,0,0,1-7.853,0Zm1.4,7.568a.642.642,0,0,1,1.266,0Zm1.834,0a.713.713,0,0,1,1.381,0Zm1.95,0a.642.642,0,0,1,1.266,0Zm1.275-.879a1.175,1.175,0,0,0-1.571.263,1.248,1.248,0,0,0-1.927,0,1.175,1.175,0,0,0-1.571-.263v-.977h.8a.447.447,0,0,0,.446-.446v-.992a4.466,4.466,0,0,0,2.57,0v.992a.447.447,0,0,0,.446.446h.8Zm-.714-1.512v-1.1A4.48,4.48,0,0,0,81,9.531h.426a1.362,1.362,0,0,0,.214-.017v1.957a2.6,2.6,0,0,1-1.33,2.266.228.228,0,0,1-.07.01C80.193,13.745,78.46,13.743,78.46,13.743ZM82.744,17.3a.447.447,0,0,1-.446.446h-.982V14.555a2.59,2.59,0,0,1,1.428,2.312Z" transform="translate(-70 0)" fill="#1298ad"/>
</svg>
