<svg xmlns="http://www.w3.org/2000/svg" width="44.586" height="54.5" viewBox="0 0 44.586 54.5">
  <g id="map_1_" data-name="map (1)" transform="translate(-8.365 -2)">
    <path id="Path_34" data-name="Path 34" d="M53.571,62.678H15.458a.779.779,0,1,1,0-1.557H52.792V31.457H39.541a.779.779,0,1,1,0-1.557h14.03a.779.779,0,0,1,.779.779V61.9A.779.779,0,0,1,53.571,62.678Z" transform="translate(-1.398 -6.178)" fill="#1298ad"/>
    <path id="Path_35" data-name="Path 35" d="M31.719,31.457H21.779a.779.779,0,1,1,0-1.557h9.941a.779.779,0,1,1,0,1.557Z" transform="translate(-2.798 -6.178)" fill="#1298ad"/>
    <path id="Path_36" data-name="Path 36" d="M9.144,56.925a.779.779,0,0,1-.779-.779V26.915a.779.779,0,1,1,1.557,0V56.147A.779.779,0,0,1,9.144,56.925Z" transform="translate(0 -5.344)" fill="#1298ad"/>
    <path id="Path_37" data-name="Path 37" d="M21.779,56.925A.779.779,0,0,1,21,56.147V26.915a.779.779,0,1,1,1.557,0V56.147A.779.779,0,0,1,21.779,56.925Z" transform="translate(-2.798 -5.344)" fill="#1298ad"/>
    <path id="Path_38" data-name="Path 38" d="M14.062,68.76a5.7,5.7,0,1,1,5.7-5.7.779.779,0,0,1-1.557,0,4.139,4.139,0,1,0-4.141,4.14.779.779,0,1,1,0,1.557Z" transform="translate(-0.001 -12.26)" fill="#1298ad"/>
    <path id="Path_39" data-name="Path 39" d="M18.982,26.295a.779.779,0,0,1-.779-.779,4.139,4.139,0,1,0-8.277,0,.779.779,0,0,1-1.557,0,5.7,5.7,0,1,1,11.392,0A.779.779,0,0,1,18.982,26.295Z" transform="translate(-0.001 -3.946)" fill="#1298ad"/>
    <path id="Path_40" data-name="Path 40" d="M45.257,51.985a.779.779,0,0,1-.55-1.329L59.621,35.733a.779.779,0,0,1,1.1,1.1L45.807,51.756a.779.779,0,0,1-.55.228Z" transform="translate(-7.996 -7.426)" fill="#1298ad"/>
    <path id="Path_41" data-name="Path 41" d="M40.039,46.675a.779.779,0,0,1-.55-1.329L54.694,30.135a.779.779,0,1,1,1.1,1.1L40.589,46.447A.779.779,0,0,1,40.039,46.675Z" transform="translate(-6.841 -6.179)" fill="#1298ad"/>
    <path id="Path_42" data-name="Path 42" d="M36,46.965a.773.773,0,0,1-.55-.228L21.232,32.518a.779.779,0,0,1,1.1-1.1L36.552,45.636A.779.779,0,0,1,36,46.965Z" transform="translate(-2.804 -6.469)" fill="#1298ad"/>
    <path id="Path_43" data-name="Path 43" d="M57.2,68.161a.778.778,0,0,1-.55-.228L44.706,55.992a.779.779,0,1,1,1.1-1.1L57.748,66.832a.779.779,0,0,1-.55,1.329Z" transform="translate(-7.996 -11.661)" fill="#1298ad"/>
    <path id="Path_44" data-name="Path 44" d="M43.867,65.284a.778.778,0,0,1-.55-.228L21.231,42.97a.779.779,0,0,1,1.1-1.1L44.417,63.955a.779.779,0,0,1-.55,1.329Z" transform="translate(-2.804 -8.784)" fill="#1298ad"/>
    <path id="Path_45" data-name="Path 45" d="M37.681,32.122a.779.779,0,0,1-.623-.317c-.408-.552-9.971-13.593-9.971-19.207a10.6,10.6,0,1,1,21.2,0c0,5.614-9.565,18.655-9.972,19.207a.779.779,0,0,1-.63.317Zm0-28.565a9.051,9.051,0,0,0-9.04,9.041c0,4.334,6.9,14.392,9.04,17.412,2.143-3.02,9.042-13.08,9.042-17.412a9.051,9.051,0,0,0-9.042-9.041Z" transform="translate(-4.146)" fill="#1298ad"/>
    <path id="Path_46" data-name="Path 46" d="M38.825,20.293A6.573,6.573,0,1,1,45.4,13.719a6.573,6.573,0,0,1-6.574,6.574Zm0-11.59a5.016,5.016,0,1,0,5.017,5.017A5.016,5.016,0,0,0,38.825,8.7Z" transform="translate(-5.289 -1.139)" fill="#1298ad"/>
  </g>
</svg>
