<svg xmlns="http://www.w3.org/2000/svg" width="19" height="19" viewBox="0 0 19 19">
  <path id="Shape_2" data-name="Shape 2" d="M308.217,36.782A9.5,9.5,0,1,0,311,43.5,9.438,9.438,0,0,0,308.217,36.782ZM296.763,50.417a4.81,4.81,0,0,1,9.475,0,8.368,8.368,0,0,1-9.475,0Zm1.717-8.109a3.021,3.021,0,1,1,3.021,3.021A3.024,3.024,0,0,1,298.479,42.308Zm8.722,7.337a5.933,5.933,0,0,0-3.449-3.872,4.134,4.134,0,1,0-4.505,0,5.932,5.932,0,0,0-3.449,3.872,8.387,8.387,0,1,1,11.4,0Z" transform="translate(-292 -34)" fill="#fff"/>
</svg>
