<svg id="arrow" xmlns="http://www.w3.org/2000/svg" width="31.866" height="27.328" viewBox="0 0 31.866 27.328">
  <g id="Group_18" data-name="Group 18" transform="translate(0 0)">
    <path id="Path_48" data-name="Path 48"
      d="M1.915,43.269a2.278,2.278,0,0,1,.394-.029H24.79l-.49-.228a4.56,4.56,0,0,1-1.288-.912l-6.3-6.3a2.36,2.36,0,0,1-.331-3.021,2.28,2.28,0,0,1,3.42-.3l11.4,11.4a2.28,2.28,0,0,1,0,3.224l0,0L19.8,58.5a2.28,2.28,0,0,1-3.42-.228,2.36,2.36,0,0,1,.331-3.021L23,48.94a4.56,4.56,0,0,1,1.14-.832l.684-.308H2.435A2.36,2.36,0,0,1,.029,45.884,2.28,2.28,0,0,1,1.915,43.269Z"
      transform="translate(0 -31.842)" />
  </g>
</svg>
