<svg id="sun" xmlns="http://www.w3.org/2000/svg" width="40.528" height="40.528" viewBox="0 0 40.528 40.528">
  <g id="Group_605" data-name="Group 605">
    <ellipse id="Ellipse_77" data-name="Ellipse 77" cx="11.464" cy="11.464" rx="11.464" ry="11.464" transform="translate(8.8 8.8)" fill="#ffd347"/>
    <path id="Path_2420" data-name="Path 2420" d="M248.875,4.5a.612.612,0,0,1-.612-.612V.612a.612.612,0,1,1,1.225,0V3.888A.612.612,0,0,1,248.875,4.5Z" transform="translate(-228.611)" fill="#ffd347"/>
    <path id="Path_2421" data-name="Path 2421" d="M126.382,37.322a.612.612,0,0,1-.531-.306l-1.638-2.836a.612.612,0,1,1,1.061-.612l1.637,2.836a.612.612,0,0,1-.53.919Z" transform="translate(-114.306 -30.628)" fill="#ffd347"/>
    <path id="Path_2422" data-name="Path 2422" d="M36.709,126.993a.609.609,0,0,1-.306-.082l-2.836-1.638a.612.612,0,0,1,.612-1.061l2.836,1.638a.613.613,0,0,1-.307,1.143Z" transform="translate(-30.628 -114.305)" fill="#ffd347"/>
    <path id="Path_2423" data-name="Path 2423" d="M3.888,249.488H.612a.612.612,0,1,1,0-1.225H3.888a.612.612,0,1,1,0,1.225Z" transform="translate(0 -228.611)" fill="#ffd347"/>
    <path id="Path_2424" data-name="Path 2424" d="M33.873,354.569a.612.612,0,0,1-.307-1.143l2.836-1.638a.612.612,0,1,1,.612,1.061l-2.836,1.638A.611.611,0,0,1,33.873,354.569Z" transform="translate(-30.628 -323.867)" fill="#ffd347"/>
    <path id="Path_2425" data-name="Path 2425" d="M124.743,431.493a.613.613,0,0,1-.53-.919l1.638-2.836a.612.612,0,1,1,1.061.612l-1.637,2.836A.612.612,0,0,1,124.743,431.493Z" transform="translate(-114.306 -393.598)" fill="#ffd347"/>
    <path id="Path_2426" data-name="Path 2426" d="M248.875,459.65a.612.612,0,0,1-.612-.612v-3.275a.612.612,0,1,1,1.225,0v3.275A.612.612,0,0,1,248.875,459.65Z" transform="translate(-228.611 -419.122)" fill="#ffd347"/>
    <path id="Path_2427" data-name="Path 2427" d="M353.957,431.494a.612.612,0,0,1-.531-.306l-1.637-2.836a.612.612,0,0,1,1.061-.612l1.638,2.836a.612.612,0,0,1-.53.919Z" transform="translate(-323.867 -393.599)" fill="#ffd347"/>
    <path id="Path_2428" data-name="Path 2428" d="M430.881,354.568a.609.609,0,0,1-.306-.082l-2.836-1.638a.612.612,0,0,1,.612-1.061l2.836,1.638a.613.613,0,0,1-.307,1.143Z" transform="translate(-393.599 -323.866)" fill="#ffd347"/>
    <path id="Path_2429" data-name="Path 2429" d="M459.038,249.488h-3.275a.612.612,0,1,1,0-1.225h3.275a.612.612,0,1,1,0,1.225Z" transform="translate(-419.122 -228.611)" fill="#ffd347"/>
    <path id="Path_2430" data-name="Path 2430" d="M428.045,126.994a.612.612,0,0,1-.307-1.143l2.836-1.638a.612.612,0,1,1,.612,1.061l-2.836,1.637A.61.61,0,0,1,428.045,126.994Z" transform="translate(-393.598 -114.306)" fill="#ffd347"/>
    <path id="Path_2431" data-name="Path 2431" d="M352.318,37.321a.613.613,0,0,1-.53-.919l1.638-2.836a.612.612,0,0,1,1.061.612l-1.638,2.836A.612.612,0,0,1,352.318,37.321Z" transform="translate(-323.867 -30.627)" fill="#ffd347"/>
  </g>
  <path id="Path_2432" data-name="Path 2432" d="M241.712,111.18a11.613,11.613,0,0,0-1.228.066,11.464,11.464,0,0,1,0,22.8,11.464,11.464,0,1,0,1.228-22.861Z" transform="translate(-221.448 -102.379)" fill="#ffbe31"/>
</svg>
