<svg xmlns="http://www.w3.org/2000/svg" width="15.318" height="18.172" viewBox="0 0 15.318 18.172">
  <g id="timer_1_" data-name="timer (1)" transform="translate(-23.26)">
    <path id="Path_3014" data-name="Path 3014" d="M32.1,2.945V1.534h.644a.767.767,0,0,0,0-1.534h-3.65a.767.767,0,0,0,0,1.534h.644V2.945a7.659,7.659,0,1,0,2.362,0ZM30.919,16.638a6.125,6.125,0,1,1,6.125-6.125A6.132,6.132,0,0,1,30.919,16.638Z" transform="translate(0)" fill="#8ec8c0"/>
    <path id="Path_3015" data-name="Path 3015" d="M137.148,99.17V95.558a.767.767,0,1,0-1.534,0v4.055a.469.469,0,0,0,.138.332l2.145,2.136a.767.767,0,0,0,1.082-1.087Z" transform="translate(-105.462 -88.976)" fill="#8ec8c0"/>
  </g>
</svg>
