<svg xmlns="http://www.w3.org/2000/svg" width="271.748" height="52.16" viewBox="0 0 271.748 52.16">
  <g id="Vector_Smart_Object" data-name="Vector Smart Object" transform="translate(-70.016 -15.283)">
    <ellipse id="Ellipse_1" data-name="Ellipse 1" cx="11.12" cy="11.046" rx="11.12" ry="11.046" transform="translate(296.138 15.283)" fill="#1298ad"/>
    <path id="Path_1" data-name="Path 1" d="M277.848,62.388a4.156,4.156,0,0,1-7.168.287L262.77,50.253l-7.909-12.422a4.112,4.112,0,0,1,3.333-6.31l11.079,4.9a9.305,9.305,0,0,0,8.3-.386l10.194-5.7a4.116,4.116,0,0,1,3.835,6.022l-6.876,13.015Z" transform="translate(34.16 2.791)" fill="#1298ad"/>
    <ellipse id="Ellipse_2" data-name="Ellipse 2" cx="11.12" cy="11.046" rx="11.12" ry="11.046" transform="translate(311.662 15.344)" fill="#249384" opacity="0.51"/>
    <path id="Path_2" data-name="Path 2" d="M290.943,62.44a4.156,4.156,0,0,1-7.168.288L275.866,50.3l-7.909-12.422a4.112,4.112,0,0,1,3.333-6.31l11.078,4.9a9.308,9.308,0,0,0,8.3-.387l10.194-5.7a4.116,4.116,0,0,1,3.835,6.023l-6.876,13.015Z" transform="translate(36.589 2.8)" fill="#229384" opacity="0.51"/>
    <text id="_Eitinaa_Human_Resources_Company" data-name=" Eitinaa Human Resources Company" transform="translate(188.548 59.009)" fill="#249384" font-size="11" font-family="Cairo-Light, Cairo" font-weight="300"><tspan x="-82.852" y="0" xml:space="preserve"> Eitinaa Human Resources Company</tspan></text>
    <g id="Group_1" data-name="Group 1" transform="translate(70.016 21.342)">
      <path id="Path_3" data-name="Path 3" d="M79.607,26.352a.764.764,0,0,1,.766.761v8.476a.923.923,0,0,0,.246.684.655.655,0,0,0,.492.244H81.6v.973a.764.764,0,0,1-.766.762H80.57a2.185,2.185,0,0,1-1.434-.481.771.771,0,0,0-.869-.049,5.769,5.769,0,0,1-2.936.8,4.83,4.83,0,0,1-4.084-2,6.321,6.321,0,0,1-1.23-3.91,5.977,5.977,0,0,1,1.771-4.423A5.229,5.229,0,0,1,75.65,26.6a6.313,6.313,0,0,1,2.218.418.787.787,0,0,0,.765-.107l.5-.391a.772.772,0,0,1,.476-.164Zm-1.325,3.04a.77.77,0,0,0-.5-.717,4.725,4.725,0,0,0-1.691-.319,3.67,3.67,0,0,0-3.026,1.466,4.4,4.4,0,0,0-.959,2.835,4.668,4.668,0,0,0,.935,3.079,3.122,3.122,0,0,0,2.46,1.026,6.008,6.008,0,0,0,2.293-.49.772.772,0,0,0,.486-.711Z" transform="translate(-70.016 -19.29)" fill="#1298ad"/>
      <path id="Path_4" data-name="Path 4" d="M84.493,26.908a.871.871,0,0,1,.873.867v8.052a2.267,2.267,0,0,1-.59,1.564,2.1,2.1,0,0,1-1.648.758H79.72a.871.871,0,0,1-.873-.867h0a.87.87,0,0,1,.873-.867h2.62a.9.9,0,0,0,.689-.293.857.857,0,0,0,.246-.635v-7.71a.871.871,0,0,1,.873-.867ZM80.938,40.69a1.163,1.163,0,0,1,.849.354,1.148,1.148,0,0,1,.357.843,1.177,1.177,0,0,1-.357.867,1.165,1.165,0,0,1-.849.354,1.193,1.193,0,0,1-.873-.354,1.175,1.175,0,0,1-.357-.867,1.146,1.146,0,0,1,.357-.843A1.191,1.191,0,0,1,80.938,40.69Zm2.977,0a1.151,1.151,0,0,1,.861.354,1.168,1.168,0,0,1,.344.843,1.2,1.2,0,0,1-.344.867,1.208,1.208,0,0,1-1.71,0,1.175,1.175,0,0,1-.357-.867,1.146,1.146,0,0,1,.357-.843A1.161,1.161,0,0,1,83.915,40.69Z" transform="translate(-68.379 -19.186)" fill="#1298ad"/>
      <path id="Path_5" data-name="Path 5" d="M94.39,27.531v8.259a.625.625,0,0,0,.627.623h0a.625.625,0,0,1,.627.623v.489a.625.625,0,0,1-.627.623h-.044a.61.61,0,0,0-.613.545A5.256,5.256,0,0,1,92.2,42.718a7.26,7.26,0,0,1-4.4,1.246q-.32,0-.77-.014a.629.629,0,0,1-.467-.232l-.513-.633a.532.532,0,0,1-.119-.336h0a.532.532,0,0,1,.571-.532q.466.037.979.037,4.822,0,4.822-4.4V27.531a.625.625,0,0,1,.627-.623h.837A.625.625,0,0,1,94.39,27.531Z" transform="translate(-67.065 -19.186)" fill="#1298ad"/>
      <path id="Path_6" data-name="Path 6" d="M115.7,28.116a.87.87,0,0,1,.873.867v8.052a2.208,2.208,0,0,1-.074.586h.455a.87.87,0,0,1,.873.867V38.7a.662.662,0,0,1-.665.66h0a.667.667,0,0,1-.519-.248l-.489-.608h-.074a2.125,2.125,0,0,1-1.722.855h-4.427a.875.875,0,0,1-.682-.326l-.427-.53h-.074a2.125,2.125,0,0,1-1.722.855H102.6a.876.876,0,0,1-.682-.326l-.427-.53h-.074a2.125,2.125,0,0,1-1.722.855H94.055a.871.871,0,0,1-.873-.867h0a.87.87,0,0,1,.873-.867h3.961a1.8,1.8,0,0,0,1.808-1.8V31.794a.87.87,0,0,1,.873-.867h.344a.87.87,0,0,1,.873.867v5.242a3.275,3.275,0,0,1-.049.586h3.481a1.8,1.8,0,0,0,1.808-1.8V30.376a.871.871,0,0,1,.873-.867h.344a.87.87,0,0,1,.873.867v6.659a2.208,2.208,0,0,1-.074.586h3.506a1.8,1.8,0,0,0,1.808-1.8V28.984a.871.871,0,0,1,.874-.867Zm-8.967-5.375a1.165,1.165,0,0,1,.849.354,1.148,1.148,0,0,1,.357.843,1.177,1.177,0,0,1-.357.867,1.163,1.163,0,0,1-.849.354,1.191,1.191,0,0,1-.873-.354,1.175,1.175,0,0,1-.357-.867,1.146,1.146,0,0,1,.357-.843A1.192,1.192,0,0,1,106.736,22.741Zm1.476-2.346a1.1,1.1,0,0,1,.824.342,1.146,1.146,0,0,1,0,1.613,1.149,1.149,0,1,1-1.636-1.613A1.116,1.116,0,0,1,108.212,20.394Zm1.5,2.346a1.165,1.165,0,0,1,.849.354,1.148,1.148,0,0,1,.357.843,1.177,1.177,0,0,1-.357.867,1.194,1.194,0,0,1-1.7,0,1.175,1.175,0,0,1-.357-.867,1.146,1.146,0,0,1,.357-.843A1.163,1.163,0,0,1,109.713,22.741Z" transform="translate(-65.72 -20.394)" fill="#1298ad"/>
      <path id="Path_7" data-name="Path 7" d="M118.877,26.908a.651.651,0,0,1,.652.648v8.271a2.394,2.394,0,0,1-.074.586h.651a.65.65,0,0,1,.652.648V37.5a.651.651,0,0,1-.652.648h0a.655.655,0,0,1-.5-.234l-.518-.621h-.074a2.081,2.081,0,0,1-1.722.855h-3.628a.651.651,0,0,1-.652-.648v-.439a.65.65,0,0,1,.652-.648H116.5a.868.868,0,0,0,.64-.244.884.884,0,0,0,.3-.684V27.556a.65.65,0,0,1,.652-.648ZM118.3,40.69a1.191,1.191,0,0,1,.873.354,1.148,1.148,0,0,1,.357.843,1.177,1.177,0,0,1-.357.867,1.193,1.193,0,0,1-.873.354,1.163,1.163,0,0,1-.849-.354,1.175,1.175,0,0,1-.357-.867,1.146,1.146,0,0,1,.357-.843A1.161,1.161,0,0,1,118.3,40.69Z" transform="translate(-62.043 -19.186)" fill="#1298ad"/>
      <path id="Path_8" data-name="Path 8" d="M124.249,21.632a.87.87,0,0,1,.873.867V36.806a2.23,2.23,0,0,1-.64,1.613,2.113,2.113,0,0,1-1.6.709h-3.407a.871.871,0,0,1-.873-.867h0a.87.87,0,0,1,.873-.867h2.62a.848.848,0,0,0,.713-.318.934.934,0,0,0,.221-.611V22.5a.87.87,0,0,1,.873-.867Z" transform="translate(-61.006 -20.165)" fill="#1298ad"/>
      <path id="Path_9" data-name="Path 9" d="M129.057,22.389V38.523a.755.755,0,0,1-.281.587l-.566.458a.766.766,0,0,1-.481.17h0a.76.76,0,0,1-.763-.758V22.389a.76.76,0,0,1,.763-.757h.566A.759.759,0,0,1,129.057,22.389Z" transform="translate(-59.455 -20.165)" fill="#1298ad"/>
      <path id="Path_10" data-name="Path 10" d="M138.072,27.532a.822.822,0,0,1,.743-.819q.554-.051,1.151-.052a6.027,6.027,0,0,1,4.4,1.637,5.228,5.228,0,0,1,1.5,3.836v3.739a2.279,2.279,0,0,1-.615,1.613,2.038,2.038,0,0,1-1.574.709h-7.267a.824.824,0,0,1-.827-.821v-.093a.824.824,0,0,1,.827-.821h6.455a.813.813,0,0,0,.91-.929v-3.1a4.1,4.1,0,0,0-1.058-2.883,4.729,4.729,0,0,0-3.493-1.2c-.109,0-.214,0-.315.006a.819.819,0,0,1-.842-.821Z" transform="translate(-57.856 -19.232)" fill="#1298ad"/>
      <path id="Path_11" data-name="Path 11" d="M152.227,26.908a.537.537,0,0,1,.539.535V37.929a5.809,5.809,0,0,1-1.55,4.276,6.016,6.016,0,0,1-3.247,1.613,9.423,9.423,0,0,1-1.722.147q-.459,0-.888-.015a.535.535,0,0,1-.4-.2l-.538-.664a.532.532,0,0,1-.119-.336h0a.532.532,0,0,1,.571-.532q.466.037.979.037,4.82,0,4.821-4.4V27.443a.537.537,0,0,1,.539-.535Z" transform="translate(-56.239 -19.186)" fill="#1298ad"/>
      <path id="Path_12" data-name="Path 12" d="M157.215,22.389V38.523a.755.755,0,0,1-.281.587l-.566.458a.764.764,0,0,1-.481.17h0a.76.76,0,0,1-.763-.758V22.389a.76.76,0,0,1,.763-.757h.566A.759.759,0,0,1,157.215,22.389Z" transform="translate(-54.233 -20.165)" fill="#1298ad"/>
      <path id="Path_13" data-name="Path 13" d="M165.42,38.195a5.213,5.213,0,0,1-4.305-1.857,6.064,6.064,0,0,1-1.254-3.959,5.314,5.314,0,0,1,5.633-5.718,5.207,5.207,0,0,1,3.2.953,4.149,4.149,0,0,1,1.549,3.494v4.961a.392.392,0,0,0,.394.391h0a.392.392,0,0,1,.394.391V37.8a.393.393,0,0,1-.394.391h-.025a.394.394,0,0,0-.39.367,5.648,5.648,0,0,1-1.528,3.664,5.791,5.791,0,0,1-2.878,1.539,8.979,8.979,0,0,1-2.116.244q-.494,0-.954-.017a.392.392,0,0,1-.291-.147l-.612-.755a.39.39,0,0,1-.087-.245v-.208a.394.394,0,0,1,.436-.388q.539.049,1.114.049,4.44,0,4.794-3.666a.4.4,0,0,0-.392-.439Zm2.706-7.086a2.666,2.666,0,0,0-.738-1.979,2.572,2.572,0,0,0-1.895-.709,3.245,3.245,0,0,0-2.6,1.1,4.531,4.531,0,0,0-.947,3.054,4.061,4.061,0,0,0,.959,2.81A3.174,3.174,0,0,0,165.4,36.46h2.337a.392.392,0,0,0,.394-.391Z" transform="translate(-53.354 -19.232)" fill="#1298ad"/>
      <path id="Path_14" data-name="Path 14" d="M171.778,36.456a.869.869,0,0,0,.812-1.179,7.341,7.341,0,0,1-.435-2.56,6.051,6.051,0,0,1,1.673-4.57,5.708,5.708,0,0,1,3.96-1.466,5.244,5.244,0,0,1,2.928.758,4.083,4.083,0,0,1,1.771,3.665v4.423a.99.99,0,0,0,.172.586.751.751,0,0,0,.59.342h.049v1.735h-.615a2.183,2.183,0,0,1-1.234-.349.9.9,0,0,0-1.1.065,4.156,4.156,0,0,1-2.81,1.017,5.059,5.059,0,0,1-3.715-1.588h-.049l-.427.53a.876.876,0,0,1-.682.326H169.19a.871.871,0,0,1-.873-.867h0a.87.87,0,0,1,.873-.867ZM180.4,31.1a2.642,2.642,0,0,0-.812-2.028,2.611,2.611,0,0,0-1.845-.66,3.124,3.124,0,0,0-2.534,1.161,4.621,4.621,0,0,0-.959,3.042,5.272,5.272,0,0,0,1.009,3.3,2.91,2.91,0,0,0,2.411,1.271,3.686,3.686,0,0,0,2.455-1.037.84.84,0,0,0,.275-.633Z" transform="translate(-51.786 -19.228)" fill="#1298ad"/>
      <path id="Path_15" data-name="Path 15" d="M186.308,21.632a.6.6,0,0,1,.6.6V36.806a2.418,2.418,0,0,1-.074.586h.7a.6.6,0,0,1,.6.6v.54a.6.6,0,0,1-.6.6h0a.6.6,0,0,1-.438-.188l-.633-.668h-.074a2.081,2.081,0,0,1-1.722.855h-3.679a.6.6,0,0,1-.6-.6v-.54a.6.6,0,0,1,.6-.6h2.892a.943.943,0,0,0,.935-.929V22.229a.6.6,0,0,1,.6-.6Z" transform="translate(-49.547 -20.165)" fill="#1298ad"/>
      <path id="Path_16" data-name="Path 16" d="M191.629,21.632a.87.87,0,0,1,.873.867V36.806a2.229,2.229,0,0,1-.64,1.613,2.111,2.111,0,0,1-1.6.709h-3.407a.87.87,0,0,1-.873-.867h0a.87.87,0,0,1,.873-.867h2.619a.847.847,0,0,0,.713-.318.932.932,0,0,0,.222-.611V22.5a.87.87,0,0,1,.873-.867Z" transform="translate(-48.51 -20.165)" fill="#1298ad"/>
      <path id="Path_17" data-name="Path 17" d="M202.46,37.929a.847.847,0,0,0,.222-1.32q-.138-.156-.262-.325a6.435,6.435,0,0,1-1.082-3.836,5.479,5.479,0,0,1,1.574-4.179,5.269,5.269,0,0,1,3.764-1.319,9.082,9.082,0,0,1,1.364.108.851.851,0,0,1,.727.836h0a.845.845,0,0,1-.96.832,6.79,6.79,0,0,0-.91-.066q-3.444,0-3.444,3.91a3.8,3.8,0,0,0,.873,2.664,3.152,3.152,0,0,0,2.448.953h.369a31.015,31.015,0,0,1,3.961-.342h.246v.434a.839.839,0,0,1-.19.531l-.424.518a.851.851,0,0,1-.636.307,15.551,15.551,0,0,0-3.989.678,15.9,15.9,0,0,0-3.492,1.5.845.845,0,0,1-1.14-.279l-.018-.03a.835.835,0,0,1,.278-1.168Q202.063,38.138,202.46,37.929Z" transform="translate(-45.664 -19.179)" fill="#249384"/>
      <path id="Path_18" data-name="Path 18" d="M211.9,21.632a1.042,1.042,0,0,1,1.045,1.039V36.464a.883.883,0,0,0,.935.929h.32v.7a1.042,1.042,0,0,1-1.046,1.039h-.086a2.033,2.033,0,0,1-1.377-.513,2.263,2.263,0,0,1-.837-1.808V22.67a1.042,1.042,0,0,1,1.046-1.039Z" transform="translate(-43.898 -20.165)" fill="#249384"/>
      <path id="Path_19" data-name="Path 19" d="M218.6,27.749a.65.65,0,0,1,.652.648v8.271a2.394,2.394,0,0,1-.074.586h.651a.65.65,0,0,1,.653.648v.438a.651.651,0,0,1-.653.649h0a.653.653,0,0,1-.5-.235l-.518-.62h-.074a2.081,2.081,0,0,1-1.722.855h-3.628a.651.651,0,0,1-.653-.649V37.9a.65.65,0,0,1,.653-.648h2.84a.869.869,0,0,0,.64-.244.884.884,0,0,0,.3-.684V28.4a.651.651,0,0,1,.653-.648Zm-.405-5.375a1.193,1.193,0,0,1,.873.354,1.146,1.146,0,0,1,.357.843,1.175,1.175,0,0,1-.357.867,1.192,1.192,0,0,1-.873.354,1.162,1.162,0,0,1-.849-.354,1.175,1.175,0,0,1-.357-.867,1.146,1.146,0,0,1,.357-.843A1.164,1.164,0,0,1,218.191,22.374Z" transform="translate(-43.549 -20.027)" fill="#249384"/>
      <path id="Path_20" data-name="Path 20" d="M224.189,27.749a.651.651,0,0,1,.653.648v8.271a2.419,2.419,0,0,1-.074.586h.651a.65.65,0,0,1,.652.648v.438a.65.65,0,0,1-.652.649h0a.654.654,0,0,1-.5-.235l-.518-.62h-.073a2.082,2.082,0,0,1-1.723.855h-3.628a.65.65,0,0,1-.652-.649V37.9a.65.65,0,0,1,.652-.648h2.84a.87.87,0,0,0,.64-.244.884.884,0,0,0,.3-.684V28.4a.651.651,0,0,1,.653-.648Zm-3.332-5.375a1.151,1.151,0,0,1,.861.354,1.166,1.166,0,0,1,.345.843,1.2,1.2,0,0,1-.345.867,1.149,1.149,0,0,1-.861.354,1.214,1.214,0,0,1-1.206-1.222,1.146,1.146,0,0,1,.357-.843A1.165,1.165,0,0,1,220.857,22.374Zm3,0a1.165,1.165,0,0,1,.849.354,1.148,1.148,0,0,1,.357.843,1.177,1.177,0,0,1-.357.867,1.163,1.163,0,0,1-.849.354,1.19,1.19,0,0,1-.873-.354,1.173,1.173,0,0,1-.357-.867,1.144,1.144,0,0,1,.357-.843A1.192,1.192,0,0,1,223.858,22.374Z" transform="translate(-42.512 -20.027)" fill="#249384"/>
      <path id="Path_21" data-name="Path 21" d="M228.245,36.46a.5.5,0,0,0,.426-.774,5.988,5.988,0,0,1-.966-3.429,5.368,5.368,0,0,1,1.821-4.3,5.869,5.869,0,0,1,3.936-1.3,9.517,9.517,0,0,1,2.352.312.508.508,0,0,1,.378.492v.615a.507.507,0,0,1-.612.492,9.491,9.491,0,0,0-1.922-.225,3.665,3.665,0,0,0-2.841,1.112,4.365,4.365,0,0,0-1.021,3.067,4.114,4.114,0,0,0,1.082,2.81,3.059,3.059,0,0,0,2.337,1.124h4.461a.507.507,0,0,1,.508.5h0a.5.5,0,0,1-.114.319l-.595.726a.508.508,0,0,1-.394.186H224.424a.506.506,0,0,1-.508-.5v-.726a.506.506,0,0,1,.508-.5Z" transform="translate(-41.475 -19.232)" fill="#249384"/>
      <path id="Path_22" data-name="Path 22" d="M240.347,22.389V38.523a.754.754,0,0,1-.281.587l-.566.458a.767.767,0,0,1-.482.17h0a.76.76,0,0,1-.762-.758V22.389a.759.759,0,0,1,.762-.757h.566A.76.76,0,0,1,240.347,22.389Z" transform="translate(-38.815 -20.165)" fill="#249384"/>
    </g>
    <ellipse id="Ellipse_3" data-name="Ellipse 3" cx="1.218" cy="1.209" rx="1.218" ry="1.209" transform="translate(72.861 24.214)" fill="#1099ae"/>
    <ellipse id="Ellipse_4" data-name="Ellipse 4" cx="1.218" cy="1.209" rx="1.218" ry="1.209" transform="translate(75.847 24.214)" fill="#1099ae"/>
  </g>
</svg>
