<svg id="youtube-logotype_1_" data-name="youtube-logotype (1)" xmlns="http://www.w3.org/2000/svg" width="18.571" height="22" viewBox="0 0 18.571 22">
  <g id="Group_34" data-name="Group 34" transform="translate(0)">
    <path id="Path_124" data-name="Path 124" d="M25.317,39.408a2.346,2.346,0,0,0-2.008-1.825,62.394,62.394,0,0,0-6.954-.257,62.412,62.412,0,0,0-6.955.257,2.345,2.345,0,0,0-2.006,1.825,19.884,19.884,0,0,0-.328,4.39,19.881,19.881,0,0,0,.324,4.39A2.345,2.345,0,0,0,9.4,50.012a62.4,62.4,0,0,0,6.954.257,62.354,62.354,0,0,0,6.954-.257,2.346,2.346,0,0,0,2.007-1.825,19.9,19.9,0,0,0,.325-4.39A19.91,19.91,0,0,0,25.317,39.408ZM12.364,40.5H11.02V47.64H9.771V40.5H8.452v-1.17h3.912Zm3.391,7.143H14.632v-.676a1.8,1.8,0,0,1-1.282.761.688.688,0,0,1-.723-.46,3.161,3.161,0,0,1-.1-.921v-4.9H13.65v4.56a3.494,3.494,0,0,0,.01.436c.027.174.112.263.263.263.225,0,.46-.173.709-.526V41.446h1.123V47.64Zm4.264-1.859a4.948,4.948,0,0,1-.114,1.248.889.889,0,0,1-.9.7,1.529,1.529,0,0,1-1.16-.685v.6H16.727V39.328h1.122v2.715a1.52,1.52,0,0,1,1.16-.672.888.888,0,0,1,.9.7,4.756,4.756,0,0,1,.114,1.245Zm4.235-1.033H22.01v1.1c0,.573.188.86.573.86a.482.482,0,0,0,.5-.45,7.06,7.06,0,0,0,.025-.76h1.145v.164c0,.362-.014.611-.024.723a1.6,1.6,0,0,1-.262.672,1.553,1.553,0,0,1-1.357.672,1.607,1.607,0,0,1-1.358-.634,2.4,2.4,0,0,1-.36-1.456V43.466a2.41,2.41,0,0,1,.347-1.459,1.6,1.6,0,0,1,1.344-.635,1.559,1.559,0,0,1,1.324.635,2.434,2.434,0,0,1,.347,1.459v1.282Z" transform="translate(-7.067 -28.27)" fill="#fff"/>
    <path id="Path_125" data-name="Path 125" d="M69.22,58.163q-.563,0-.563.859V59.6h1.122v-.573C69.779,58.45,69.591,58.163,69.22,58.163Z" transform="translate(-53.714 -44.051)" fill="#fff"/>
    <path id="Path_126" data-name="Path 126" d="M52.065,58.163a.8.8,0,0,0-.56.273v3.775a.8.8,0,0,0,.56.277c.324,0,.488-.277.488-.836V59.008C52.553,58.45,52.388,58.163,52.065,58.163Z" transform="translate(-40.723 -44.051)" fill="#fff"/>
    <path id="Path_127" data-name="Path 127" d="M53.8,15.165a1.822,1.822,0,0,0,1.3-.769v.683h1.134V8.82H55.1V13.6c-.251.355-.49.531-.716.531-.152,0-.241-.09-.266-.266a2.631,2.631,0,0,1-.014-.441V8.82H52.97v4.949a3.162,3.162,0,0,0,.1.931A.7.7,0,0,0,53.8,15.165Z" transform="translate(-41.833 -6.68)" fill="#fff"/>
    <path id="Path_128" data-name="Path 128" d="M18.933,5V8.4H20.19V5L21.7,0H20.431l-.858,3.3L18.68,0H17.357c.265.779.541,1.561.806,2.34A20.69,20.69,0,0,1,18.933,5Z" transform="translate(-14.86)" fill="#fff"/>
    <path id="Path_129" data-name="Path 129" d="M36.989,14.929a1.546,1.546,0,0,0,1.323-.641,2.448,2.448,0,0,0,.352-1.472V10.624a2.453,2.453,0,0,0-.352-1.474,1.682,1.682,0,0,0-2.644,0,2.433,2.433,0,0,0-.355,1.474v2.192a2.426,2.426,0,0,0,.355,1.472A1.546,1.546,0,0,0,36.989,14.929ZM36.447,10.4c0-.579.176-.868.541-.868s.541.288.541.868V13.03c0,.579-.175.869-.541.869s-.541-.29-.541-.869Z" transform="translate(-28.46 -6.444)" fill="#fff"/>
  </g>
</svg>
